<svg width="179" height="40" viewBox="0 0 179 40" fill="none" xmlns="http://www.w3.org/2000/svg">
    <g clip-path="url(#30y2bzky3a)">
        <g clip-path="url(#r8hvki796b)">
            <path d="M35.876 23.706a3.18 3.18 0 0 1-1.232-.26 3.221 3.221 0 0 1-1.04-.72 3.28 3.28 0 0 1-.69-1.07 3.321 3.321 0 0 1-.234-1.256V5.422c-.007-.431.07-.86.227-1.26.158-.4.392-.765.69-1.072a3.195 3.195 0 0 1 1.043-.719 3.151 3.151 0 0 1 3.514.719c.298.307.532.672.69 1.072.157.4.234.829.227 1.26V20.4c.004.43-.076.857-.234 1.256a3.28 3.28 0 0 1-.69 1.07 3.22 3.22 0 0 1-1.04.72c-.39.168-.808.256-1.231.26z" fill="#D51317"/>
            <path d="M23.86 23.706a3.18 3.18 0 0 1-1.232-.26 3.22 3.22 0 0 1-1.04-.72 3.28 3.28 0 0 1-.69-1.07 3.323 3.323 0 0 1-.233-1.256V5.422c-.008-.431.07-.86.227-1.26s.391-.765.689-1.072a3.193 3.193 0 0 1 1.043-.719 3.152 3.152 0 0 1 3.515.719c.297.307.532.672.689 1.072.157.4.234.829.227 1.26V20.4c.004.43-.075.857-.234 1.256a3.28 3.28 0 0 1-.69 1.07 3.22 3.22 0 0 1-1.04.72c-.39.168-.808.256-1.232.26h.001z" fill="#004070"/>
            <path d="M23.86 23.706a3.18 3.18 0 0 1-1.232-.26 3.22 3.22 0 0 1-1.04-.72 3.28 3.28 0 0 1-.69-1.07 3.323 3.323 0 0 1-.234-1.256 11.274 11.274 0 0 1 1.055-4.966 11.092 11.092 0 0 1 3.119-3.971c3.093-2.421 7.329-3.016 11.907-1.669a3.27 3.27 0 0 1 1.924 1.58c.412.764.512 1.662.277 2.5-.11.413-.299.8-.557 1.14-.258.339-.58.622-.947.834a3.152 3.152 0 0 1-2.44.3c-2.61-.762-4.847-.559-6.308.583-.535.44-.962 1-1.247 1.637a4.54 4.54 0 0 0-.389 2.032c.004.43-.075.858-.234 1.257a3.28 3.28 0 0 1-.69 1.07 3.22 3.22 0 0 1-1.042.72c-.39.167-.809.256-1.232.259z" fill="#004070"/>
            <path opacity=".54" d="M27.055 10.01a10.795 10.795 0 0 0-2.957 1.632 10.673 10.673 0 0 0-3.434 4.752V20.4a11.274 11.274 0 0 1 1.055-4.966 11.092 11.092 0 0 1 3.119-3.971 10.593 10.593 0 0 1 2.216-1.333l.001-.12z" fill="#AC4191"/>
            <path d="M39.071 12.964c.002.307-.038.614-.119.91-.11.414-.299.802-.557 1.141-.259.34-.58.623-.948.834a3.151 3.151 0 0 1-2.441.299 10.924 10.924 0 0 0-2.32-.432v.39c.802.135 1.587.359 2.343.666.755.3 1.594.295 2.346-.013a3.203 3.203 0 0 0 1.698-1.645v-2.15h-.002z" fill="#DCDC02"/>
            <path d="M24.838 11.858c3.093-2.42 7.329-3.01 11.902-1.668a3.235 3.235 0 0 1 1.627 1.122c.415.536.656 1.19.688 1.872a3.72 3.72 0 0 0-.555-2.24 3.628 3.628 0 0 0-1.76-1.46c-4.578-1.348-8.805-.753-11.902 1.668a11.72 11.72 0 0 0-3.124 4.14 11.903 11.903 0 0 0-1.044 5.245 11.24 11.24 0 0 1 1.106-4.825 11.056 11.056 0 0 1 3.062-3.854z" fill="#fff"/>
            <path d="M109.014 23.705a3.307 3.307 0 0 1-2.312-1.083 3.416 3.416 0 0 1-.884-2.428v-6.042a3.316 3.316 0 0 1 .168-1.322c.144-.425.374-.814.674-1.144.3-.33.664-.593 1.069-.773a3.165 3.165 0 0 1 3.638.773 3.272 3.272 0 0 1 .842 2.466v6.042a3.418 3.418 0 0 1-.884 2.426 3.31 3.31 0 0 1-2.311 1.085z" fill="#004070"/>
            <path d="M115.799 2.848a3.081 3.081 0 0 0-3.535.247 3.142 3.142 0 0 0-.8.973l-2.175 3.694a.305.305 0 0 1-.11.115.293.293 0 0 1-.413-.115s.281.571 1.312 2.327c1.031 1.755 2.88 4.368 4.614 1.416l2.181-3.715a3.72 3.72 0 0 0 .43-2.69 3.676 3.676 0 0 0-1.512-2.251l.008-.001z" fill="#D51317"/>
            <path d="M110.087 10.08c-1.036-1.759-1.312-2.328-1.312-2.328-.544-.941-1.781-3.073-2.156-3.726a3.096 3.096 0 0 0-.816-.988 3.014 3.014 0 0 0-3.588-.133 3.685 3.685 0 0 0-1.431 2.214 3.733 3.733 0 0 0 .405 2.617c.29.506 2.838 5 3.931 6.648.39.718.955 1.322 1.642 1.752.687.43 1.472.674 2.278.706h.01c1.062 0 2.624-.458 4.025-2.59.031-.047.061-.095.088-.142l1.538-2.616c-1.735 2.954-3.579.338-4.614-1.415z" fill="#004070"/>
            <path d="M110.087 9.2a73.73 73.73 0 0 1-.818-1.41.294.294 0 0 1-.498-.032s.282.572 1.313 2.327c1.03 1.755 2.879 4.368 4.614 1.416l.57-.963c-1.735 2.953-4.149.421-5.184-1.333l.003-.005z" fill="#DCDC02"/>
            <path d="M109.05 16.843h-.011a4.25 4.25 0 0 1-1.776-.425 4.323 4.323 0 0 1-1.445-1.133v.958a4.141 4.141 0 0 0 2.823 1.163h.01a4.483 4.483 0 0 0 2.007-.55 4.57 4.57 0 0 0 1.555-1.403v-.1a4.36 4.36 0 0 1-1.428 1.082 4.287 4.287 0 0 1-1.735.408z" fill="#E6D9EC"/>
            <path d="M106.457 3.985c.367.652 2.356 4.331 3.393 6.09.787 1.333 2.33 3.536 3.79 3.22l1.062-1.81c-1.499 2.543-3.822-.994-4.614-2.341-1.036-1.758-1.312-2.327-1.312-2.327-.544-.942-1.781-2.458-2.156-3.11a2.903 2.903 0 0 0-1.213-1.088 2.845 2.845 0 0 0-1.598-.254c.54.023 1.066.184 1.529.467.464.283.85.679 1.124 1.153h-.005z" fill="#fff"/>
            <path d="M50.559 10.753a.256.256 0 0 1 .498 0l3.888 10.721a3.26 3.26 0 0 0 1.138 1.59c.53.398 1.17.62 1.83.637.504 0 1-.131 1.44-.381a3.763 3.763 0 0 0 1.561-2.018 3.83 3.83 0 0 0-.07-2.566L57.022 8.184c-1.593-4.274-3.983-3.948-6.458 2.571l-.005-.002z" fill="#D51317"/>
            <path d="M57.906 23.706a3.037 3.037 0 0 1-1.3-.306 3.084 3.084 0 0 1-1.052-.837c-3.786-4.558-9.592-4.053-9.653-4.042-.436.03-.873-.03-1.287-.175a3.274 3.274 0 0 1-1.12-.667 3.336 3.336 0 0 1-.778-1.057 3.384 3.384 0 0 1-.315-1.28 3.53 3.53 0 0 1 .655-2.533 3.424 3.424 0 0 1 2.204-1.357 17.904 17.904 0 0 1 8.222 1.354 18.177 18.177 0 0 1 6.762 4.94c.577.715.878 1.62.844 2.544a3.82 3.82 0 0 1-1.025 2.473 3.036 3.036 0 0 1-.989.693 2.997 2.997 0 0 1-1.176.249h.008z" fill="#004070"/>
            <path d="M42.494 23.443a3.063 3.063 0 0 0 2.504-.042 3.11 3.11 0 0 0 1.027-.776 3.17 3.17 0 0 0 .633-1.13l3.895-10.737c2.476-6.516 4.863-6.842 6.458-2.571l-.59-1.637-.047-.127c-1.073-2.664-3.267-4.285-5.727-4.21-2.46.076-4.574 1.81-5.537 4.561-1.088 3.106-4.335 11.958-4.367 12.054a3.729 3.729 0 0 0-.004 2.658 3.653 3.653 0 0 0 1.76 1.965l-.005-.008z" fill="#D51317"/>
            <path d="M56.877 7.842c-1.593-3.91-3.916-3.429-6.324 2.91a.263.263 0 0 1 .093-.138.256.256 0 0 1 .404.138l.14.39c2.343-6.027 4.475-6.2 5.681-3.306l.006.006z" fill="#DCDC02"/>
            <path opacity=".54" d="M47.725 18.564c.535.055 1.067.143 1.593.263-.062-2.142 1.025-5.395 1.574-6.884a21.99 21.99 0 0 0-.71-.158c-.645 1.79-1.676 4.631-2.457 6.779z" fill="#AC4191"/>
            <path d="m56.422 6.553-.047-.126-.094-.217c-1.548-2.5-3.604-1.462-5.723 4.121-.75 2.069-3.527 10.148-3.527 10.148.834-2.286 2.828-6.863 3.527-8.8 2.476-6.516 4.863-7.769 6.458-3.494l-.59-1.637-.004.005z" fill="#fff"/>
            <path opacity=".5" d="M60.255 17.748a17.276 17.276 0 0 0-9.048-5.732c3.44.92 6.518 2.897 8.81 5.663a3.83 3.83 0 0 1 .843 2.543 3.821 3.821 0 0 1-1.024 2.473 3.06 3.06 0 0 1-.99.691 3.017 3.017 0 0 1-1.175.251 3.17 3.17 0 0 1-.627-.068c.278.09.568.136.86.137a2.988 2.988 0 0 0 1.175-.249c.372-.162.708-.397.989-.693a3.82 3.82 0 0 0 1.025-2.473 3.828 3.828 0 0 0-.844-2.543h.005z" fill="#fff"/>
            <path d="M73.076 10.137c7.354-.174 6.308-7.79.016-7.79h-8.247a3.13 3.13 0 0 0-1.232.23 3.17 3.17 0 0 0-1.048.695c-.301.3-.54.659-.703 1.054a3.272 3.272 0 0 0 .703 3.549c.3.3.657.536 1.048.695.392.159.81.237 1.232.23h8.247c.673 0 1.01.231 1.01.683 0 .453-.512.61-1.025.648v.006z" fill="#D51317"/>
            <path d="M62.598 20.479c.014.852.357 1.663.955 2.26a3.17 3.17 0 0 0 2.24.932 3.17 3.17 0 0 0 2.24-.932c.598-.597.94-1.408.955-2.26v-3.873c-4.422 0-6.39.583-6.39 3.873z" fill="#004070"/>
            <path d="M73.076 10.137c-.082.006-.17.006-.254.006h-7.029a3.161 3.161 0 0 0-2.255.94 3.264 3.264 0 0 0-.94 2.287v7.105c0-3.294 1.968-3.873 6.39-3.873h3.843c5.034 0 7.67-3.58 7.67-7.11a7.24 7.24 0 0 0-.567-2.826 7.14 7.14 0 0 0-1.621-2.367 7.007 7.007 0 0 0-2.41-1.522 6.92 6.92 0 0 0-2.806-.428c6.292 0 7.339 7.61-.016 7.79l-.005-.002z" fill="#004070"/>
            <path d="M73.091 2.353c5.381 0 6.288 5.795 1 7.042 0 .032.01.063.01.1 0 .463-.512.61-1.025.648 7.354-.173 6.307-7.79.015-7.79z" fill="#DCDC02"/>
            <path opacity=".54" d="M62.598 20.479c0-3.052 2.501-3.22 6.39-3.231V16.6c-4.422 0-6.39.584-6.39 3.873v.006z" fill="#AC4191"/>
            <path d="M68.719 16.485c-3.475 0-5.436.363-6.117 2.11v1.884c0-2.476 1.968-3.569 6.39-3.569l3.724-.305-3.997-.12zM73.413 10.137c6.148-.142 6.422-5.484 2.672-7.238a7.959 7.959 0 0 0-2.993-.552c5.687 0 6.738 7.626-.016 7.79-.082.005-.17.005-.254.005h.337c.083 0 .171 0 .254-.005z" fill="#fff"/>
            <path d="M92.596 10.137c7.354-.174 6.308-7.79.016-7.79h-8.248a3.13 3.13 0 0 0-1.231.23 3.17 3.17 0 0 0-1.049.695 3.272 3.272 0 0 0 0 4.602c.3.3.657.537 1.049.696.391.159.81.237 1.231.23h8.248c.672 0 1.01.231 1.01.683 0 .453-.513.61-1.025.648l-.001.006z" fill="#D51317"/>
            <path d="M82.113 20.479c.015.852.358 1.663.955 2.26a3.17 3.17 0 0 0 2.24.932 3.17 3.17 0 0 0 2.24-.932c.599-.597.942-1.408.956-2.26v-3.873c-4.423 0-6.39.583-6.39 3.873z" fill="#004070"/>
            <path d="M92.596 10.137c-.088.006-.17.006-.254.006h-7.03a3.161 3.161 0 0 0-2.254.94 3.265 3.265 0 0 0-.94 2.287v7.105c0-3.294 1.967-3.873 6.39-3.873h3.832c5.034 0 7.67-3.58 7.67-7.11a7.24 7.24 0 0 0-.567-2.826 7.14 7.14 0 0 0-1.621-2.367 7.005 7.005 0 0 0-2.41-1.522 6.92 6.92 0 0 0-2.806-.428c6.298-.001 7.344 7.61-.01 7.788z" fill="#004070"/>
            <path d="M92.61 2.353c5.382 0 6.288 5.795 1 7.042 0 .032.011.063.011.1 0 .463-.513.61-1.025.648 7.354-.173 6.307-7.79.015-7.79z" fill="#DCDC02"/>
            <path opacity=".54" d="M82.113 20.479c0-3.052 2.502-3.22 6.39-3.231V16.6c-4.422 0-6.39.584-6.39 3.873v.006z" fill="#AC4191"/>
            <path d="M88.23 16.485c-3.475 0-5.435.363-6.117 2.11v1.884c0-2.476 1.968-3.569 6.39-3.569l3.724-.305-3.998-.121h.001zM92.932 10.137c6.148-.142 6.423-5.484 2.673-7.238a7.959 7.959 0 0 0-2.993-.552c5.687 0 6.732 7.626-.016 7.79-.088.005-.17.005-.254.005h.336c.084 0 .172 0 .254-.005z" fill="#fff"/>
            <path fill-rule="evenodd" clip-rule="evenodd" d="M.506 18.448c2.03 2.031 6.158-6.063 15.325-.021-5.826-3.384-11.104.552-9.063 1.904 1.44.953 2.915-4.347 9.063-1.904-8.883.531-11.933 8.79-8.716 8.783 2.28-.005.14-6.973 8.716-8.783-9.378 6.07-7.768 16.957-4.257 14.962 2.482-1.41-4.014-7.7 4.258-14.962 2.19-11.073-6.66-17.433-7.68-13.48-.72 2.8 8.247 2.39 7.675 13.48-.947-6.753-7.245-8.563-7.038-6.1.145 1.737 5.164-.327 7.038 6.1-2.408 6.247 2.802 7.747 1.875 9.21-1.32 2.073-5.2-3.29-1.875-9.21-8.34-7.463-18.188-2.857-15.324.02h.003zm6.28-7.974.336.363.486.048-.233.437.104.484-.482-.09-.424.253-.068-.495-.363-.326.44-.217.198-.458.005.001zm6.354 13.827.337.358.486.048-.233.437.104.484-.482-.096-.424.253-.062-.495-.363-.331.44-.216.197-.453v.01zm-8.889-3.986.433.468.622.063-.301.558.135.62-.617-.116-.539.322-.082-.632-.469-.42.562-.274.254-.584.002-.005zM15.045 1.631l.715.762 1.025.104-.486.927.217 1.026-1.015-.19-.896.527-.135-1.042-.771-.7.932-.458.415-.963-.001.007z" fill="#D51317"/>
            <path d="M117.047 21.032c0 3.581 1.045 7.082 3.003 10.06a17.88 17.88 0 0 0 7.995 6.668 17.554 17.554 0 0 0 10.294 1.03 17.733 17.733 0 0 0 9.123-4.955 18.207 18.207 0 0 0 4.876-9.27 18.387 18.387 0 0 0-1.014-10.461 18.049 18.049 0 0 0-6.562-8.126 17.571 17.571 0 0 0-16.717-1.673 17.8 17.8 0 0 0-5.78 3.924 18.13 18.13 0 0 0-3.862 5.874 18.37 18.37 0 0 0-1.356 6.93z" fill="#D31217"/>
            <path d="M134.096 2.927c3.064.001 6.056.942 8.585 2.699a15.431 15.431 0 0 1 5.593 7.148 24.446 24.446 0 0 1-8.797 8.338 23.977 23.977 0 0 1-11.655 3.025 23.997 23.997 0 0 1-8.364-1.5 15.7 15.7 0 0 1-.33-7.079 15.588 15.588 0 0 1 2.812-6.485 15.275 15.275 0 0 1 5.364-4.529 15.018 15.018 0 0 1 6.789-1.621l.003.004z" fill="url(#3983wjdqtc)"/>
            <path d="M129.316 32.485c-3.227-.432-5.086-2.857-5.101-6.637a8.558 8.558 0 0 1 .129-1.684c.085-.59.284-1.157.585-1.668a4.484 4.484 0 0 1 1.171-1.311 4.144 4.144 0 0 1-.798-2.381c-.016-4.132 1.667-7.473 3.916-7.784a55.81 55.81 0 0 1 6.38-.458c.206 0 .412.015.617.042a3.95 3.95 0 0 1 2.509 1.308 4.074 4.074 0 0 1 1.023 2.67 3.494 3.494 0 0 1-.534 1.988 3.407 3.407 0 0 1-1.553 1.323 5.082 5.082 0 0 1 1.999 2.045c.46.862.667 1.84.596 2.818.02 4.762-5.045 9.794-9.856 9.794a8.11 8.11 0 0 1-1.093-.068l.01.003z" fill="#D51317"/>
            <path d="M129.56 32.253c-3.226-.431-5.086-2.857-5.101-6.637a8.434 8.434 0 0 1 .13-1.679 4.513 4.513 0 0 1 1.755-2.98 4.111 4.111 0 0 1-.798-2.38c-.016-4.127 1.668-7.473 3.916-7.784a56.846 56.846 0 0 1 6.38-.462c.206 0 .412.014.617.041a3.957 3.957 0 0 1 2.507 1.31 4.082 4.082 0 0 1 1.025 2.67 3.497 3.497 0 0 1-.532 1.985 3.411 3.411 0 0 1-1.55 1.325 5.07 5.07 0 0 1 1.998 2.044 5.18 5.18 0 0 1 .591 2.819c.021 4.762-5.045 9.794-9.856 9.794a8.126 8.126 0 0 1-1.093-.069l.011.003z" fill="#D51317"/>
            <path d="M129.808 32.019c-3.227-.431-5.086-2.857-5.101-6.637a8.745 8.745 0 0 1 .129-1.68c.085-.589.284-1.156.585-1.667a4.495 4.495 0 0 1 1.17-1.311 4.11 4.11 0 0 1-.797-2.381c-.016-4.132 1.667-7.473 3.915-7.784a56.87 56.87 0 0 1 6.381-.463c.206 0 .412.015.616.042.966.11 1.858.576 2.509 1.309a4.077 4.077 0 0 1 1.023 2.67 3.486 3.486 0 0 1-.533 1.987 3.405 3.405 0 0 1-1.554 1.324 5.072 5.072 0 0 1 2.001 2.043c.46.863.667 1.841.594 2.82.021 4.761-5.044 9.794-9.85 9.8-.366-.001-.73-.024-1.093-.07l.005-.002z" fill="#D51317"/>
            <path d="M130.049 31.79c-3.222-.432-5.081-2.858-5.101-6.638a8.483 8.483 0 0 1 .129-1.683c.085-.59.283-1.157.585-1.668a4.493 4.493 0 0 1 1.17-1.311 4.102 4.102 0 0 1-.797-2.381c-.016-4.127 1.667-7.474 3.915-7.784a56.87 56.87 0 0 1 6.38-.463c.207 0 .413.015.617.042a3.962 3.962 0 0 1 2.508 1.31 4.08 4.08 0 0 1 1.024 2.669 3.486 3.486 0 0 1-.533 1.987 3.405 3.405 0 0 1-1.554 1.323 5.071 5.071 0 0 1 2.001 2.044c.46.863.666 1.841.594 2.82.021 4.761-5.045 9.794-9.856 9.794a8.13 8.13 0 0 1-1.093-.07l.011.009z" fill="#D51317"/>
            <path d="M130.3 31.558c-3.227-.431-5.086-2.857-5.101-6.637a8.876 8.876 0 0 1 .129-1.684c.085-.59.284-1.156.585-1.668a4.495 4.495 0 0 1 1.17-1.31 4.102 4.102 0 0 1-.797-2.382c-.016-4.131 1.667-7.473 3.915-7.784a56.854 56.854 0 0 1 6.381-.463c.206.001.412.015.616.042a3.962 3.962 0 0 1 2.508 1.31 4.08 4.08 0 0 1 1.024 2.67 3.486 3.486 0 0 1-.533 1.987 3.405 3.405 0 0 1-1.554 1.323 5.072 5.072 0 0 1 1.999 2.044 5.18 5.18 0 0 1 .591 2.819c.02 4.762-5.045 9.794-9.851 9.8a8.147 8.147 0 0 1-1.093-.069l.011.002z" fill="#D51317"/>
            <path d="M130.548 31.332c-3.227-.431-5.086-2.857-5.101-6.637a8.827 8.827 0 0 1 .129-1.679c.085-.59.284-1.156.585-1.667a4.482 4.482 0 0 1 1.171-1.312 4.112 4.112 0 0 1-.798-2.38c-.021-4.132 1.667-7.474 3.915-7.785a56.863 56.863 0 0 1 6.381-.462c.206 0 .412.014.616.041a3.959 3.959 0 0 1 2.508 1.31 4.082 4.082 0 0 1 1.025 2.67 3.494 3.494 0 0 1-.534 1.987 3.407 3.407 0 0 1-1.553 1.323 5.082 5.082 0 0 1 1.999 2.045c.46.862.667 1.84.596 2.818.02 4.762-5.045 9.794-9.857 9.8a8.105 8.105 0 0 1-1.092-.069l.01-.003z" fill="#D51317"/>
            <path d="M130.171 30.748c-2.718-.363-4.217-2.353-4.232-5.595-.011-.5.027-1.001.115-1.494a3.3 3.3 0 0 1 .787-1.86 3.21 3.21 0 0 1 1.714-1.034 3.206 3.206 0 0 1-1.09-1.131 3.275 3.275 0 0 1-.433-1.522c-.016-3.594 1.45-6.726 3.268-6.973a54.276 54.276 0 0 1 6.279-.452c.17 0 .34.01.508.031a2.917 2.917 0 0 1 1.887.949c.492.542.768 1.25.776 1.988.009.378-.058.754-.198 1.105-.14.35-.35.667-.617.93a2.682 2.682 0 0 1-2.023.776c-.596.016-1.593.052-2.651.126 3.842.838 5.982 1.727 5.998 5.239.02 4.279-4.744 8.979-9.1 8.979a7.372 7.372 0 0 1-.988-.062zm1.02-9.09c.487.508.763 1.186.772 1.894-.013.32-.052.64-.119.953a3.179 3.179 0 0 0-.057.306 5.376 5.376 0 0 0 2.542-2.39 13.632 13.632 0 0 0-3.133-.762h-.005z" fill="#fff"/>
            <path d="M130.297 30.052c-2.398-.32-3.667-2.031-3.682-4.942-.01-.46.024-.92.104-1.373.311-1.59 1.248-2.537 2.512-2.537.107 0 .215.006.321.021a2.164 2.164 0 0 1 1.395.686c.367.395.578.913.594 1.456a5.106 5.106 0 0 1-.104.826 3.955 3.955 0 0 0-.119.963c0 .121.026.258.072.263 1.243 0 3.667-2.02 3.662-3.333 0-.216-1.352-.8-3.942-1.152-2.507-.348-3.403-1.715-3.408-2.863-.016-3.29 1.295-6.248 2.86-6.463a54.908 54.908 0 0 1 6.209-.448c.147 0 .295.01.441.027a2.26 2.26 0 0 1 1.497.722c.391.424.612.982.616 1.564a2.281 2.281 0 0 1-.694 1.677 2.216 2.216 0 0 1-1.684.617c-.859.027-2.53.095-4.06.237-.301.027-.456.148-.456.358 0 .131 0 .294.834.469 4.755.979 6.561 1.647 6.567 4.82.016 3.953-4.578 8.463-8.622 8.47-.306 0-.612-.02-.916-.059l.003-.006z" fill="#D51317"/>
            <path d="M130.539 29.348c-2.165-.286-3.222-1.732-3.232-4.406-.012-.429.02-.857.094-1.28.388-1.993 1.621-2.215 2.134-2.21.088-.002.177.003.264.017.404.034.783.215 1.066.51.284.295.453.684.478 1.095-.012.241-.043.48-.094.716a4.42 4.42 0 0 0-.129 1.07c0 .536.281.768.523.8h.072c1.429 0 4.044-2.2 4.03-3.743 0-.948-2.75-1.468-4.387-1.69-1.823-.252-2.958-1.142-2.963-2.326-.016-3.358 1.312-5.884 2.522-6.048a55.23 55.23 0 0 1 6.158-.447c.129-.002.257.007.384.026.443.023.862.216 1.171.54.309.325.484.757.491 1.208a1.914 1.914 0 0 1-.597 1.381 1.835 1.835 0 0 1-1.402.498c-.865.027-2.548.09-4.086.237-.513.048-.808.332-.803.774 0 .616.482.841 1.248 1 4.828.994 6.138 1.637 6.148 4.285.016 3.758-4.371 8.042-8.235 8.048a6.411 6.411 0 0 1-.859-.052l.004-.003z" fill="#fff"/>
            <path d="M142.662 18.106c0 3.58 1.045 7.081 3.003 10.059a17.876 17.876 0 0 0 7.996 6.668 17.55 17.55 0 0 0 10.294 1.03 17.73 17.73 0 0 0 9.122-4.955 18.2 18.2 0 0 0 4.876-9.27 18.378 18.378 0 0 0-1.014-10.461 18.042 18.042 0 0 0-6.562-8.126 17.573 17.573 0 0 0-16.717-1.673 17.811 17.811 0 0 0-5.78 3.925 18.129 18.129 0 0 0-3.862 5.874 18.37 18.37 0 0 0-1.356 6.929z" fill="#1C3A6E"/>
            <path d="M159.661.094c3.064.001 6.056.942 8.586 2.699a15.433 15.433 0 0 1 5.594 7.149 24.448 24.448 0 0 1-8.797 8.338 23.98 23.98 0 0 1-11.655 3.025 23.997 23.997 0 0 1-8.364-1.5 15.695 15.695 0 0 1-.328-7.078 15.595 15.595 0 0 1 2.812-6.484 15.275 15.275 0 0 1 5.364-4.528 15.018 15.018 0 0 1 6.788-1.62z" fill="url(#y4oyfzkt9d)"/>
            <path d="M164.269 29.579c-3.226-.431-5.086-2.857-5.101-6.637a8.483 8.483 0 0 1 .13-1.684c.084-.59.283-1.156.584-1.668a4.498 4.498 0 0 1 1.171-1.311 4.111 4.111 0 0 1-.798-2.38c-.02-4.132 1.668-7.474 3.916-7.785a56.865 56.865 0 0 1 6.38-.463c.206 0 .412.015.617.042a3.957 3.957 0 0 1 2.507 1.31 4.082 4.082 0 0 1 1.025 2.67 3.49 3.49 0 0 1-.532 1.985 3.41 3.41 0 0 1-1.55 1.325 5.086 5.086 0 0 1 1.997 2.045c.46.862.668 1.84.598 2.818.02 4.762-5.045 9.794-9.857 9.794a8.122 8.122 0 0 1-1.092-.069l.005.008z" fill="#004070"/>
            <path d="M164.517 29.348c-3.226-.432-5.086-2.857-5.101-6.637a8.484 8.484 0 0 1 .13-1.684c.084-.59.283-1.157.584-1.668a4.496 4.496 0 0 1 1.171-1.311 4.103 4.103 0 0 1-.798-2.381c-.02-4.127 1.668-7.474 3.916-7.784a56.766 56.766 0 0 1 6.38-.463 4.8 4.8 0 0 1 .617.042 3.957 3.957 0 0 1 2.507 1.31 4.082 4.082 0 0 1 1.025 2.669 3.486 3.486 0 0 1-.534 1.987 3.407 3.407 0 0 1-1.553 1.323 5.072 5.072 0 0 1 2.001 2.044c.46.862.666 1.841.594 2.82.021 4.761-5.045 9.794-9.856 9.8a8.126 8.126 0 0 1-1.093-.07l.01.003z" fill="#004070"/>
            <path d="M164.761 29.116c-3.227-.431-5.086-2.857-5.101-6.637a8.826 8.826 0 0 1 .129-1.679c.085-.59.284-1.157.585-1.668a4.495 4.495 0 0 1 1.17-1.311 4.15 4.15 0 0 1-.797-2.381c-.021-4.127 1.667-7.473 3.915-7.784a56.863 56.863 0 0 1 6.381-.463c.206 0 .412.015.616.042a3.962 3.962 0 0 1 2.508 1.31 4.08 4.08 0 0 1 1.024 2.67 3.49 3.49 0 0 1-.532 1.985 3.41 3.41 0 0 1-1.55 1.325 5.085 5.085 0 0 1 2 2.044c.46.862.666 1.84.595 2.819.021 4.761-5.045 9.794-9.85 9.794-.366-.001-.731-.024-1.093-.069v.003z" fill="#004070"/>
            <path d="M165.011 28.89c-3.227-.432-5.081-2.858-5.097-6.638a8.434 8.434 0 0 1 .13-1.679c.085-.59.283-1.156.585-1.667a4.494 4.494 0 0 1 1.17-1.312 4.095 4.095 0 0 1-.797-2.38c-.016-4.132 1.667-7.474 3.915-7.785a56.865 56.865 0 0 1 6.38-.462c.208 0 .416.014.622.042a3.957 3.957 0 0 1 2.507 1.31 4.082 4.082 0 0 1 1.025 2.669 3.497 3.497 0 0 1-.532 1.985 3.408 3.408 0 0 1-1.551 1.325 5.072 5.072 0 0 1 1.999 2.045 5.18 5.18 0 0 1 .591 2.818c.02 4.762-5.045 9.794-9.851 9.794a8.122 8.122 0 0 1-1.092-.068l-.004.003z" fill="#004070"/>
            <path d="M165.259 28.654c-3.227-.431-5.086-2.857-5.101-6.637a8.484 8.484 0 0 1 .135-1.684c.085-.59.283-1.156.585-1.667a4.494 4.494 0 0 1 1.17-1.312 4.063 4.063 0 0 1-.797-2.38c-.016-4.132 1.667-7.474 3.92-7.785a56.848 56.848 0 0 1 6.38-.462c.208 0 .415.014.621.042a3.96 3.96 0 0 1 2.508 1.31 4.082 4.082 0 0 1 1.025 2.669 3.494 3.494 0 0 1-.534 1.987 3.406 3.406 0 0 1-1.554 1.323 5.077 5.077 0 0 1 2 2.045c.46.862.667 1.84.596 2.818.02 4.762-5.045 9.794-9.851 9.8a8.081 8.081 0 0 1-1.093-.069l-.01.002z" fill="#004070"/>
            <path d="M165.502 28.427c-3.227-.432-5.086-2.857-5.101-6.637a8.434 8.434 0 0 1 .129-1.68c.085-.59.284-1.156.585-1.667a4.494 4.494 0 0 1 1.17-1.312 4.118 4.118 0 0 1-.797-2.38c-.016-4.132 1.667-7.474 3.915-7.784a56.868 56.868 0 0 1 6.381-.463c.206 0 .412.014.616.042.966.11 1.858.576 2.509 1.309a4.072 4.072 0 0 1 1.023 2.67 3.486 3.486 0 0 1-.533 1.987 3.405 3.405 0 0 1-1.554 1.323 5.074 5.074 0 0 1 2 2.044c.46.863.667 1.841.595 2.82.021 4.761-5.044 9.793-9.856 9.793a8.147 8.147 0 0 1-1.093-.068l.011.003z" fill="#004070"/>
            <path d="M153.611 29.685a3.693 3.693 0 0 1-2.408-1.39 4.26 4.26 0 0 1-.85-1.984h-.367c-.592.006-1.184-.03-1.771-.105a5.964 5.964 0 0 1-3.516-1.553 5.576 5.576 0 0 1-1.213-1.907 5.647 5.647 0 0 1-.362-2.24c-.02-4.827 7.591-12.916 12.161-12.921.291-.002.581.015.87.052 2.599.348 3.93 2.358 3.946 5.974a33.327 33.327 0 0 1-.59 4.868 3.901 3.901 0 0 1 1.548 1.443c.375.616.576 1.326.58 2.051a3.72 3.72 0 0 1-.956 2.532 3.603 3.603 0 0 1-2.4 1.183 5.048 5.048 0 0 1-.3.042c-.104.405-.207.816-.316 1.226a3.683 3.683 0 0 1-1.306 2.005c-.645.501-1.436.768-2.247.757a3.96 3.96 0 0 1-.502-.031l-.001-.002z" fill="#004070"/>
            <path d="M153.859 29.453a3.678 3.678 0 0 1-2.408-1.39 4.248 4.248 0 0 1-.849-1.983h-.368c-.592.005-1.184-.03-1.771-.106a5.967 5.967 0 0 1-3.516-1.552 5.576 5.576 0 0 1-1.213-1.907 5.647 5.647 0 0 1-.362-2.24c-.02-4.827 7.591-12.917 12.161-12.922.291 0 .581.02.87.058 2.599.348 3.93 2.359 3.946 5.974a34.546 34.546 0 0 1-.586 4.863 3.895 3.895 0 0 1 1.547 1.443 3.99 3.99 0 0 1 .577 2.05 3.71 3.71 0 0 1-.953 2.535 3.593 3.593 0 0 1-2.403 1.18 5.324 5.324 0 0 1-.301.042c-.104.406-.207.816-.316 1.227a3.683 3.683 0 0 1-1.306 2.005c-.645.5-1.436.767-2.247.757a3.99 3.99 0 0 1-.502-.032v-.002z" fill="#004070"/>
            <path d="M154.102 29.221a3.693 3.693 0 0 1-2.408-1.39 4.199 4.199 0 0 1-.849-1.983h-.368a13.837 13.837 0 0 1-1.771-.106 5.967 5.967 0 0 1-3.516-1.553 5.576 5.576 0 0 1-1.213-1.907 5.65 5.65 0 0 1-.363-2.241c-.02-4.827 7.591-12.916 12.161-12.916.293-.002.585.015.875.052 2.6.348 3.931 2.358 3.942 5.973a34.48 34.48 0 0 1-.585 4.87 3.894 3.894 0 0 1 1.547 1.442c.374.617.574 1.327.577 2.051a3.716 3.716 0 0 1-.955 2.532 3.601 3.601 0 0 1-2.401 1.183 5.235 5.235 0 0 1-.301.041c-.104.406-.207.817-.316 1.227a3.689 3.689 0 0 1-1.308 2.003 3.59 3.59 0 0 1-2.244.76c-.168 0-.336-.011-.503-.032l-.001-.006z" fill="#004070"/>
            <path d="M154.352 28.986a3.694 3.694 0 0 1-2.408-1.384 4.2 4.2 0 0 1-.849-1.984h-.371c-.592.005-1.183-.03-1.771-.106a5.967 5.967 0 0 1-3.516-1.552 5.576 5.576 0 0 1-1.213-1.907 5.665 5.665 0 0 1-.362-2.24c-.02-4.827 7.591-12.917 12.161-12.917.293-.002.585.016.875.053 2.6.352 3.926 2.358 3.942 5.973a34.48 34.48 0 0 1-.586 4.869 3.895 3.895 0 0 1 1.547 1.443c.374.616.574 1.326.577 2.05a3.716 3.716 0 0 1-.954 2.533A3.604 3.604 0 0 1 159.022 25l-.301.048c-.104.405-.207.81-.316 1.226a3.683 3.683 0 0 1-1.307 2.005c-.644.5-1.435.767-2.245.757-.168 0-.336-.01-.503-.031l.002-.018z" fill="#004070"/>
            <path d="M154.595 28.758a3.707 3.707 0 0 1-2.408-1.39 4.224 4.224 0 0 1-.849-1.983h-.368a13.837 13.837 0 0 1-1.771-.106 5.967 5.967 0 0 1-3.516-1.552 5.56 5.56 0 0 1-1.212-1.907 5.648 5.648 0 0 1-.363-2.241c-.02-4.827 7.592-12.916 12.161-12.92.293 0 .585.017.876.051 2.599.348 3.925 2.359 3.946 5.974a34.186 34.186 0 0 1-.59 4.868 3.899 3.899 0 0 1 1.546 1.444 3.98 3.98 0 0 1 .577 2.05 3.712 3.712 0 0 1-.953 2.534 3.599 3.599 0 0 1-2.403 1.18 5.235 5.235 0 0 1-.301.043c-.104.406-.207.816-.315 1.226a3.687 3.687 0 0 1-1.313 2.003c-.646.499-1.438.763-2.249.75a3.96 3.96 0 0 1-.502-.032l.007.008z" fill="#004070"/>
            <path d="M154.844 28.527a3.692 3.692 0 0 1-2.409-1.39 4.263 4.263 0 0 1-.849-1.979h-.367c-.593.005-1.184-.03-1.772-.106a5.967 5.967 0 0 1-3.516-1.552 5.63 5.63 0 0 1-1.574-4.148c-.021-4.826 7.591-12.916 12.16-12.916.293-.002.585.016.876.053 2.599.347 3.925 2.358 3.941 5.973a34.626 34.626 0 0 1-.584 4.869 3.898 3.898 0 0 1 1.546 1.443 3.98 3.98 0 0 1 .577 2.05 3.716 3.716 0 0 1-.954 2.533 3.603 3.603 0 0 1-2.402 1.182l-.301.048c-.104.405-.207.81-.315 1.226a3.679 3.679 0 0 1-1.308 2.001c-.645.5-1.435.764-2.245.752-.168 0-.336-.01-.503-.032l-.001-.007z" fill="#004070"/>
            <path d="M165.13 27.848c-2.718-.363-4.218-2.353-4.232-5.595-.011-.5.027-1.001.115-1.494.061-.689.336-1.34.784-1.86a3.207 3.207 0 0 1 1.712-1.034 3.215 3.215 0 0 1-1.09-1.131 3.276 3.276 0 0 1-.433-1.522c-.015-3.6 1.45-6.726 3.268-6.973a54.3 54.3 0 0 1 6.279-.452c.17 0 .34.01.508.031a2.917 2.917 0 0 1 1.887.949c.492.542.768 1.25.776 1.988.01.378-.057.754-.197 1.105-.14.35-.35.668-.617.932a2.688 2.688 0 0 1-.932.602c-.348.133-.72.192-1.092.172a64.29 64.29 0 0 0-2.651.126c3.838.838 5.982 1.727 5.998 5.238.016 4.28-4.744 8.98-9.1 8.98a7.373 7.373 0 0 1-.984-.063h.001zm1.02-9.09a2.79 2.79 0 0 1 .774 1.893c-.009.321-.049.64-.119.953a8.63 8.63 0 0 0-.061.306 5.376 5.376 0 0 0 2.542-2.39 13.636 13.636 0 0 0-3.136-.762z" fill="#fff"/>
            <path d="M165.248 27.148c-2.398-.321-3.667-2.032-3.682-4.942-.01-.46.025-.92.104-1.374.311-1.59 1.249-2.537 2.512-2.537a2.283 2.283 0 0 1 1.574.62c.429.4.692.952.736 1.543a5.106 5.106 0 0 1-.104.827 3.955 3.955 0 0 0-.119.963c0 .12.026.258.072.262 1.243 0 3.667-2.02 3.662-3.333 0-.216-1.357-.8-3.942-1.152-2.507-.348-3.403-1.714-3.408-2.863-.01-3.29 1.296-6.248 2.86-6.463a54.92 54.92 0 0 1 6.215-.448c.147 0 .295.01.441.032a2.26 2.26 0 0 1 1.495.72c.391.422.612.979.618 1.559a2.292 2.292 0 0 1-.69 1.675 2.232 2.232 0 0 1-.776.49 2.195 2.195 0 0 1-.903.132c-.86.027-2.531.095-4.066.237-.301.027-.455.148-.451.358 0 .132 0 .295.835.469 4.754.979 6.56 1.647 6.566 4.82.021 3.953-4.573 8.464-8.622 8.47-.306 0-.612-.02-.916-.059l-.011-.006z" fill="#004070"/>
            <path d="M165.496 26.443c-2.164-.286-3.221-1.732-3.237-4.406a6.848 6.848 0 0 1 .094-1.279c.388-1.994 1.621-2.216 2.134-2.21.088 0 .177.005.264.016.406.031.786.212 1.07.507.284.296.452.686.474 1.098a4.997 4.997 0 0 1-.094.721c-.086.35-.129.709-.129 1.069 0 .542.281.769.523.8h.069c1.429 0 4.04-2.2 4.03-3.742 0-.947-2.75-1.468-4.387-1.69-1.818-.252-2.958-1.142-2.962-2.326-.016-3.358 1.312-5.884 2.522-6.048a55.22 55.22 0 0 1 6.158-.447c.128 0 .256.01.383.026.444.02.864.213 1.173.538.31.325.485.758.49 1.21a1.892 1.892 0 0 1-1.245 1.781c-.242.086-.498.12-.753.102-.865.027-2.542.09-4.091.237-.513.048-.808.331-.803.773 0 .617.481.842 1.253 1 4.827.995 6.137 1.637 6.148 4.286.015 3.758-4.371 8.042-8.235 8.048a6.383 6.383 0 0 1-.86-.053l.011-.011zM154.47 27.949a2.705 2.705 0 0 1-1.771-1.01 3.248 3.248 0 0 1-.668-2.011 2.85 2.85 0 0 1 .016-.381c-.415.01-.85.02-1.306.02a12.175 12.175 0 0 1-1.662-.095 5.075 5.075 0 0 1-2.979-1.279 4.541 4.541 0 0 1-.966-1.558 4.604 4.604 0 0 1-.277-1.82c-.015-4.411 7.231-12.096 11.405-12.096a5.69 5.69 0 0 1 .761.048c2.739.368 3.066 2.99 3.071 4.931a38.36 38.36 0 0 1-.73 5.569 2.78 2.78 0 0 1 1.632.98c.414.51.64 1.152.637 1.814a2.962 2.962 0 0 1-.796 1.997 2.871 2.871 0 0 1-1.922.909c-.264.042-.528.073-.793.11a64.758 64.758 0 0 1-.44 1.727 2.963 2.963 0 0 1-1.051 1.582 2.878 2.878 0 0 1-1.782.602c-.132-.001-.263-.01-.394-.027l.015-.012zm-.176-13.021a27.48 27.48 0 0 0-3.242 3.979 45.69 45.69 0 0 0 2.388-.116c.306-1.253.647-2.711.854-3.863z" fill="#fff"/>
            <path d="M154.589 27.252a2.045 2.045 0 0 1-1.372-.773 2.557 2.557 0 0 1-.518-1.59c.005-.357.049-.714.129-1.062a40.52 40.52 0 0 1-2.035.047 12.084 12.084 0 0 1-1.594-.095 4.487 4.487 0 0 1-2.636-1.11 3.872 3.872 0 0 1-1.035-2.894c-.016-4.117 7.028-11.585 10.933-11.59.232 0 .464.013.694.042 1.781.237 2.512 1.479 2.522 4.279a42.219 42.219 0 0 1-.855 6.173h.15c.125 0 .244.01.363.021.521.06 1.001.316 1.348.715.347.4.537.915.532 1.448a2.451 2.451 0 0 1-.684 1.666 2.376 2.376 0 0 1-1.626.728c-.363.058-.73.095-1.099.148-.16.679-.336 1.352-.518 2.042a2.474 2.474 0 0 1-.885 1.323 2.41 2.41 0 0 1-1.496.498 2.208 2.208 0 0 1-.326-.021l.008.005zm.562-13.81c-1.025.422-4.692 4.838-4.909 5.943.911 0 2.242-.027 3.765-.148a39.213 39.213 0 0 0 1.15-5.794h-.006z" fill="#004070"/>
            <path d="M154.837 26.542a1.57 1.57 0 0 1-1.052-.58 2.006 2.006 0 0 1-.393-1.247c.008-.386.062-.77.16-1.143a.52.52 0 0 0 .031-.179v-.314l-.29.016c-.704.042-1.46.063-2.31.063a12.172 12.172 0 0 1-1.538-.09 3.997 3.997 0 0 1-2.356-.968 3.3 3.3 0 0 1-.691-1.158 3.342 3.342 0 0 1-.174-1.342c-.016-3.858 6.883-11.169 10.545-11.169.215-.003.43.011.642.042 1.274.169 2.062.857 2.077 3.742a43.445 43.445 0 0 1-.902 6.374l-.077.38.367-.03c.135-.011.295-.011.41-.011.102-.002.204.006.305.02.396.04.763.23 1.028.53.266.302.411.693.407 1.097a2.07 2.07 0 0 1-.603 1.389c-.367.368-.86.579-1.375.59a40.71 40.71 0 0 1-1.165.153l-.188.02-.036.153a93.733 93.733 0 0 1-.544 2.152 2.084 2.084 0 0 1-.747 1.109 2.031 2.031 0 0 1-1.526.394l-.005.007zm.637-13.848c-1.02 0-5.449 5.28-5.443 6.49a.434.434 0 0 0 .105.299.417.417 0 0 0 .278.143c.027 0 .052.005.083.005.912 0 2.335-.031 3.967-.162l.15-.017.036-.152a32.708 32.708 0 0 0 1.191-6.173.421.421 0 0 0-.331-.432h-.045.009z" fill="#fff"/>
            <path d="M63.702 32.842a.718.718 0 0 1 .145-.321c.081-.102.18-.19.29-.258.116-.077.242-.137.374-.18.13-.042.264-.065.4-.068.17 0 .337.035.492.106a1.297 1.297 0 0 1 .672.684c.064.151.097.313.099.477.003.17-.037.338-.115.49a1.324 1.324 0 0 1-.74.662 1.47 1.47 0 0 1-.53.095 2.183 2.183 0 0 1-1.617-.669 2.144 2.144 0 0 1-.444-.73 2.559 2.559 0 0 1-.156-.895c.005-.322.038-.642.099-.958.058-.35.175-.686.346-.994a1.369 1.369 0 0 1-.238-.59 4.345 4.345 0 0 1-.057-.658 1.845 1.845 0 0 1 .342-1.11c.233-.32.528-.589.865-.79.36-.216.749-.377 1.155-.476.399-.098.808-.15 1.218-.153.384.002.766.046 1.14.132.385.085.758.216 1.113.39a2.7 2.7 0 0 1 .85.658c.217.253.335.58.331.916v5.714h-1.01V28.93a1.111 1.111 0 0 0-.213-.666 1.805 1.805 0 0 0-.57-.49 3.108 3.108 0 0 0-.793-.306 3.81 3.81 0 0 0-.87-.105c-.353 0-.706.042-1.05.126a3.013 3.013 0 0 0-.928.39c-.25.167-.45.4-.58.673a1.457 1.457 0 0 0-.047.973c.135-.172.303-.315.492-.42.188-.1.395-.153.607-.153.357-.01.706.105.99.327a1.094 1.094 0 0 1 .403.91c.003.16-.031.318-.098.463-.061.138-.151.26-.264.358a1.366 1.366 0 0 1-.388.232 1.254 1.254 0 0 1-.462.083 2.03 2.03 0 0 1-.668-.095 1.264 1.264 0 0 1-.512-.327 2.123 2.123 0 0 0-.176.484 3.99 3.99 0 0 0-.083.537c-.014.17-.007.34.02.506.022.143.073.28.15.4l.016.01zm1.672-2.632a.386.386 0 0 0-.176-.358.76.76 0 0 0-.393-.106.571.571 0 0 0-.363.132.647.647 0 0 0-.223.32c.083.087.173.167.269.238.09.073.2.115.316.12.128-.002.254-.027.375-.072a.272.272 0 0 0 .195-.274zm-.04 3.069a.425.425 0 0 0-.136-.321.441.441 0 0 0-.326-.132.458.458 0 0 0-.326.132.434.434 0 0 0-.13.32.406.406 0 0 0 .13.311.486.486 0 0 0 .656 0 .416.416 0 0 0 .131-.31zM78.524 31.848c.005.39-.083.774-.258 1.12-.17.328-.407.615-.695.842a3.288 3.288 0 0 1-1.015.532 3.928 3.928 0 0 1-1.232.184c-.442 0-.883-.054-1.312-.158a4.32 4.32 0 0 1-1.15-.459 2.625 2.625 0 0 1-.814-.726 1.597 1.597 0 0 1-.305-.942 1.386 1.386 0 0 1 .363-1.01 1.388 1.388 0 0 1 1.03-.374c.161 0 .32.032.469.095.145.06.277.147.388.258a1.238 1.238 0 0 1 .373.895c0 .26-.072.513-.207.732a1 1 0 0 1-.627.452c.227.112.465.2.71.263.336.086.683.127 1.03.121.288.003.575-.041.85-.131.256-.083.496-.212.709-.381.202-.162.368-.367.486-.6.122-.245.184-.516.181-.79v-2.44a1.892 1.892 0 0 0-.197-.879 1.721 1.721 0 0 0-.533-.61 2.47 2.47 0 0 0-.824-.358 4.378 4.378 0 0 0-1.051-.121c-.283 0-.566.026-.844.079-.252.046-.496.13-.725.247a1.505 1.505 0 0 0-.508.427c-.132.177-.201.394-.197.616h-.993a1.66 1.66 0 0 1 .326-1.037c.22-.284.497-.517.813-.684a3.936 3.936 0 0 1 1.072-.38 5.492 5.492 0 0 1 1.088-.122c.431.002.86.053 1.28.153.41.092.801.258 1.154.49.338.22.623.516.834.862.222.38.333.817.322 1.258v2.563l.01.013zm-4.972.21a.43.43 0 0 0-.14-.32.47.47 0 0 0-.336-.132.496.496 0 0 0-.362.131.424.424 0 0 0-.14.321.463.463 0 0 0 .14.348.5.5 0 0 0 .362.131.47.47 0 0 0 .444-.29.463.463 0 0 0 .032-.189zM84.357 34.315v-5.604a1.145 1.145 0 0 0-.166-.611 1.578 1.578 0 0 0-.42-.452 2.325 2.325 0 0 0-.549-.3 2.253 2.253 0 0 0-.58-.137 2.203 2.203 0 0 0-1.015.105 1.344 1.344 0 0 0-.725.558.936.936 0 0 1 .207-.068c.078-.013.158-.018.238-.016a1.215 1.215 0 0 1 .912.331 1.156 1.156 0 0 1 .326.857 1.157 1.157 0 0 1-.363.884 1.276 1.276 0 0 1-.906.337 1.226 1.226 0 0 1-1.015-.427 1.77 1.77 0 0 1-.347-1.158c0-.272.067-.54.197-.779.133-.257.312-.488.528-.679.228-.201.487-.362.767-.476.29-.12.602-.182.917-.179.404-.004.807.051 1.196.163.344.098.667.26.954.476.258.2.472.452.626.742.155.298.233.631.228.968v5.459h-1.015l.005.006zm-2.48-5.326a.512.512 0 0 0-.15-.374.587.587 0 0 0-.778 0 .48.48 0 0 0-.155.374.496.496 0 0 0 .155.373.54.54 0 0 0 .388.148.526.526 0 0 0 .504-.318.491.491 0 0 0 .035-.203zM87.687 26.521a2.47 2.47 0 0 1 .933.158 1.693 1.693 0 0 1 1.01 1.032c.077.22.117.451.118.684v4.106a.928.928 0 0 0 .181.59c.125.157.286.282.469.362.197.091.406.152.62.18.212.03.425.046.638.047.205-.002.408-.038.6-.106.2-.067.39-.163.563-.285.164-.125.303-.28.41-.459.108-.182.164-.392.16-.605V26.52h1.015v5.91c.004.313-.083.62-.248.884a2.27 2.27 0 0 1-.642.658 3.06 3.06 0 0 1-.865.41 3.2 3.2 0 0 1-.917.148c-.176 0-.363 0-.562-.016-.2-.01-.4-.032-.596-.068a3.68 3.68 0 0 1-.585-.153 2.1 2.1 0 0 1-.508-.258.669.669 0 0 1-.259.237c-.105.061-.216.11-.331.148-.114.036-.23.062-.347.079-.1.016-.2.025-.301.027a1.31 1.31 0 0 1-.994-.358 1.214 1.214 0 0 1-.342-.88c-.002-.163.03-.325.093-.476a1.256 1.256 0 0 1 .689-.685c.175-.071.361-.107.55-.105.169.006.337.029.502.069v-3.465a4.233 4.233 0 0 0-.021-.448.907.907 0 0 0-.125-.38.821.821 0 0 0-.315-.274 1.359 1.359 0 0 0-.585-.106v-.909l-.008.011zm.016 6.773a.483.483 0 0 0 .145.348.51.51 0 0 0 .384.147.497.497 0 0 0 .362-.147.453.453 0 0 0 .15-.348.484.484 0 0 0-.15-.358.522.522 0 0 0-.362-.147.513.513 0 0 0-.494.31.484.484 0 0 0-.035.195zM98.542 31.405c-.31.002-.613.097-.87.273a1.278 1.278 0 0 0-.322.306 1.055 1.055 0 0 0-.176.39c.127-.121.277-.214.44-.274.154-.062.317-.095.482-.095.172 0 .343.032.503.095a1.367 1.367 0 0 1 .725.648c.076.157.115.33.115.505a1.23 1.23 0 0 1-.368.906 1.3 1.3 0 0 1-.937.358 1.705 1.705 0 0 1-1.312-.537 2.037 2.037 0 0 1-.502-1.442 1.551 1.551 0 0 1 .217-.806c.141-.238.326-.447.543-.616.22-.17.465-.301.726-.39.247-.09.508-.139.771-.141a1.987 1.987 0 0 1 1.425.523c.174.163.324.35.445.558.13.22.247.446.352.679.041.104.088.206.14.306.067.13.135.262.213.4.066.124.146.24.238.347a.337.337 0 0 0 .223.148.428.428 0 0 0 .375-.286c.114-.223.2-.46.254-.706a8.108 8.108 0 0 0 .196-1.663 7.87 7.87 0 0 0-.077-1.158 3.743 3.743 0 0 0-.259-.942c-.438.296-.91.534-1.406.71-.438.164-.9.251-1.367.259-.233 0-.476-.01-.736-.027a5.703 5.703 0 0 1-.782-.105 3.6 3.6 0 0 1-.73-.232 1.826 1.826 0 0 1-.59-.416 1.483 1.483 0 0 1-.264-.373 1.018 1.018 0 0 1-.094-.437 1.06 1.06 0 0 1 .18-.617c.125-.178.284-.327.47-.437.208-.125.43-.224.662-.294a6.296 6.296 0 0 1 1.46-.263 8.11 8.11 0 0 1 .58-.02 4.85 4.85 0 0 1 1.538.22c.416.135.806.343 1.15.616.1-.128.186-.265.259-.41.07-.14.129-.287.176-.437l.99.2a3.188 3.188 0 0 1-.766 1.435c.219.36.379.752.476 1.163.105.455.155.922.15 1.39 0 .273-.021.626-.062 1.057a6.535 6.535 0 0 1-.248 1.263c-.111.388-.298.75-.549 1.063a1.158 1.158 0 0 1-.948.442 1.17 1.17 0 0 1-.709-.206 1.737 1.737 0 0 1-.469-.51 4.525 4.525 0 0 1-.332-.653 8.854 8.854 0 0 0-.28-.626c-.079-.132-.146-.269-.218-.4a1.57 1.57 0 0 0-.249-.358 1.133 1.133 0 0 0-.346-.258 1.082 1.082 0 0 0-.492-.096l-.014-.03zm.709-2.548a3.27 3.27 0 0 0 1.212-.237 4.292 4.292 0 0 0 1.088-.627 2.316 2.316 0 0 0-.855-.462 4.126 4.126 0 0 0-1.218-.159c-.212.004-.423.021-.632.053-.26.035-.517.084-.771.147a3 3 0 0 0-.648.238c-.18.095-.269.205-.258.32a.304.304 0 0 0 .145.248c.08.053.157.113.228.18.247.115.51.193.781.23.309.049.62.073.933.074l-.005-.005zm-.611 4.435a.454.454 0 0 0-.14-.337.468.468 0 0 0-.346-.142.474.474 0 0 0-.343.142.443.443 0 0 0-.145.337.435.435 0 0 0 .145.327.478.478 0 0 0 .343.137.476.476 0 0 0 .346-.137.443.443 0 0 0 .14-.327zM102.432 37.251c.002.25-.03.5-.094.742a4.095 4.095 0 0 1-.223.637c-.08.18-.17.357-.269.527-.094.153-.17.286-.238.394l-.834-.476c.077-.076.143-.163.197-.258.072-.12.15-.252.223-.406a9.51 9.51 0 0 0 .202-.458c.056-.14.101-.284.135-.431-.11.054-.224.098-.342.131a1.248 1.248 0 0 1-.812-.031 1.257 1.257 0 0 1-.68-.595.997.997 0 0 1-.105-.448 1.116 1.116 0 0 1 .368-.857c.252-.223.577-.341.911-.331.267-.012.531.06.757.205.191.129.351.3.468.5.114.19.198.395.249.61.047.177.073.36.077.543l.01.002zm-1.062-.716a.527.527 0 0 0-.176-.39.597.597 0 0 0-.818 0 .522.522 0 0 0-.126.605.57.57 0 0 0 .535.342.594.594 0 0 0 .41-.163.523.523 0 0 0 .18-.393h-.005zM112.676 34.315h-1.031v-5.842a.789.789 0 0 0-.404-.762 2.555 2.555 0 0 0-1.196-.22c-.2.003-.398.031-.591.083a4.336 4.336 0 0 0-1.217.558c-.17.11-.333.231-.487.363v4.516a1.463 1.463 0 0 1-.42 1.117c-.309.276-.712.42-1.124.4a1.302 1.302 0 0 1-.948-.337 1.21 1.21 0 0 1-.346-.911 1.158 1.158 0 0 1 .388-.91c.25-.223.573-.343.906-.338a2.134 2.134 0 0 1 .512.053V28.91a1.671 1.671 0 0 0-.264.017c-.104.01-.181.016-.238.016a1.405 1.405 0 0 1-.963-.306 1.167 1.167 0 0 1-.347-.931 1.128 1.128 0 0 1 .347-.89c.273-.218.616-.327.963-.305.316 0 .625.091.891.262.263.16.469.402.585.69.15-.14.311-.268.482-.381a3.74 3.74 0 0 1 1.181-.506c.199-.047.402-.072.606-.073.315 0 .629.033.937.095.303.058.597.154.876.286.245.113.465.274.647.476a.968.968 0 0 1 .249.673v6.286l.006-.004zm-6.458-6.231h.228a.964.964 0 0 0 .269-.042 1.663 1.663 0 0 0-.125-.506.383.383 0 0 0-.375-.263.716.716 0 0 0-.375.096.317.317 0 0 0-.166.285.353.353 0 0 0 .161.327c.115.07.248.105.383.1v.003zm.601 5.22a.497.497 0 0 0-.314-.47.492.492 0 0 0-.199-.035.626.626 0 0 0-.404.137.46.46 0 0 0-.166.363.516.516 0 0 0 .166.381.586.586 0 0 0 .603.115.508.508 0 0 0 .314-.496v.006z" fill="#004070"/>
        </g>
    </g>
    <defs>
        <linearGradient id="3983wjdqtc" x1="126.839" y1="3.347" x2="132.047" y2="23.68" gradientUnits="userSpaceOnUse">
            <stop stop-color="#821810"/>
            <stop offset=".06" stop-color="#881710"/>
            <stop offset=".7" stop-color="#C50E13"/>
            <stop offset="1" stop-color="#DE0B15"/>
        </linearGradient>
        <linearGradient id="y4oyfzkt9d" x1="152.407" y1=".519" x2="157.614" y2="20.848" gradientUnits="userSpaceOnUse">
            <stop stop-color="#2387C9"/>
            <stop offset=".28" stop-color="#236CA3"/>
            <stop offset=".77" stop-color="#243F66"/>
            <stop offset="1" stop-color="#252E4E"/>
        </linearGradient>
        <clipPath id="30y2bzky3a">
            <path fill="#fff" d="M0 0h179v40H0z"/>
        </clipPath>
        <clipPath id="r8hvki796b">
            <path fill="#fff" d="M0 0h179v40H0z"/>
        </clipPath>
    </defs>
</svg>
