<svg width="16" height="17" viewBox="0 0 16 17" fill="none" xmlns="http://www.w3.org/2000/svg">
    <g clip-path="url(#5ii97aaf0a)">
        <path fill-rule="evenodd" clip-rule="evenodd" d="M8.001.5A8.029 8.029 0 0 0 2.82 2.398 7.945 7.945 0 0 0 .107 7.18a7.918 7.918 0 0 0 1.051 5.391 7.993 7.993 0 0 0 4.313 3.43c.397.074.547-.173.547-.382 0-.21-.008-.817-.01-1.48-2.226.48-2.696-.94-2.696-.94-.363-.922-.888-1.164-.888-1.164-.726-.493.054-.483.054-.483.804.056 1.227.82 1.227.82.713 1.216 1.872.864 2.328.659.071-.515.279-.866.508-1.065-1.778-.2-3.645-.882-3.645-3.93a3.071 3.071 0 0 1 .824-2.135c-.083-.2-.357-1.01.078-2.108 0 0 .671-.213 2.2.816a7.635 7.635 0 0 1 4.006 0c1.527-1.03 2.198-.816 2.198-.816.436 1.096.161 1.905.08 2.108.541.58.837 1.346.825 2.138 0 3.054-1.872 3.727-3.653 3.924.286.247.542.73.542 1.473 0 1.065-.01 1.92-.01 2.183 0 .212.145.46.55.382a7.993 7.993 0 0 0 4.314-3.43A7.918 7.918 0 0 0 15.9 7.18a7.945 7.945 0 0 0-2.713-4.784A8.028 8.028 0 0 0 8.004.5H8z" fill="#323D4C"/>
        <path d="M3.029 11.921c-.017.04-.08.052-.132.024-.052-.027-.09-.079-.072-.12.019-.04.08-.051.133-.023.051.027.09.08.071.12zM3.353 12.28a.133.133 0 0 1-.164-.036c-.051-.055-.062-.132-.022-.166s.111-.018.163.037c.051.055.063.132.023.166zM3.669 12.738c-.05.034-.133 0-.18-.069a.133.133 0 0 1-.03-.146.132.132 0 0 1 .03-.043c.05-.033.133 0 .18.067.046.067.047.157 0 .19zM4.098 13.18c-.044.05-.133.036-.206-.03-.072-.066-.09-.155-.046-.203.044-.047.133-.034.208.03.076.065.09.156.044.204zM4.697 13.439c-.02.062-.11.09-.2.063-.09-.026-.15-.1-.133-.163.018-.064.109-.093.2-.064.092.03.15.1.133.164zM5.35 13.483c0 .065-.073.12-.169.121-.095.002-.173-.051-.173-.116 0-.064.074-.12.17-.12.095-.002.173.05.173.115zM5.96 13.382c.013.065-.053.132-.149.148-.095.015-.179-.023-.19-.086-.012-.063.056-.132.15-.149.092-.017.178.022.19.087z" fill="#fff"/>
    </g>
    <defs>
        <clipPath id="5ii97aaf0a">
            <path fill="#fff" transform="translate(0 .167)" d="M0 0h16v16H0z"/>
        </clipPath>
    </defs>
</svg>
