<svg width="20" height="21" viewBox="0 0 20 21" fill="none" xmlns="http://www.w3.org/2000/svg">
    <g filter="url(#32awm8alrb)" clip-path="url(#aja7mxrf5a)">
        <path d="M6.103 4.78a.42.42 0 0 1-.417-.424V2.432a.42.42 0 0 1 .417-.424c.23 0 .417.19.417.424v1.924a.42.42 0 0 1-.417.424z" fill="#191F28"/>
        <path d="M4.532 4.78a.42.42 0 0 1-.417-.424V2.432a.42.42 0 0 1 .417-.424c.23 0 .417.19.417.424v1.924a.42.42 0 0 1-.417.424z" fill="#164170"/>
        <path d="M4.532 4.781a.42.42 0 0 1-.417-.424c0-.463.2-.883.546-1.148.405-.31.958-.387 1.555-.215a.424.424 0 0 1 .288.523.418.418 0 0 1-.516.294c-.341-.099-.634-.071-.824.075a.572.572 0 0 0-.215.47.42.42 0 0 1-.417.425z" fill="#164170"/>
        <path d="M4.952 3.02a1.375 1.375 0 0 0-.837.821v.516c0-.463.2-.883.546-1.148.089-.068.187-.126.288-.172v-.015l.003-.002z" fill="#9F4B94" style="mix-blend-mode:multiply" opacity=".54"/>
        <path d="M6.52 3.398a.418.418 0 0 1-.53.41 1.544 1.544 0 0 0-.304-.056v.05c.096.016.2.044.305.087a.415.415 0 0 0 .529-.213v-.278z" fill="#CDD630" style="mix-blend-mode:multiply"/>
        <path d="M4.661 3.257c.405-.31.958-.387 1.555-.215.176.05.293.21.303.384.013-.194-.109-.42-.303-.475-.6-.172-1.15-.096-1.555.215-.346.266-.546.726-.546 1.188v.018c.01-.45.207-.855.544-1.115h.002z" fill="#fff"/>
        <path d="M15.651 4.78c-.23 0-.417-.203-.417-.45v-.777c0-.247.187-.45.417-.45.23 0 .417.203.417.45v.776c0 .25-.187.45-.417.45z" fill="#164170"/>
        <path d="M16.539 2.098c-.195-.121-.445-.048-.567.157l-.283.475a.038.038 0 0 1-.068 0s.038.073.172.298c.134.225.377.561.602.182l.285-.478a.471.471 0 0 0-.141-.634z" fill="#DA2129"/>
        <path d="M15.791 3.027a7.12 7.12 0 0 1-.172-.298l-.28-.477a.398.398 0 0 0-.574-.145.475.475 0 0 0-.134.622c.038.066.371.642.513.855.177.26.374.315.513.315.14 0 .344-.058.526-.333a.078.078 0 0 1 .012-.018l.2-.336c-.227.38-.467.043-.601-.182l-.003-.002z" fill="#164170"/>
        <path d="m15.791 2.914-.106-.182c-.018.022-.05.02-.066-.005 0 0 .038.073.172.298.134.225.377.56.602.182l.073-.124c-.228.38-.541.053-.678-.172l.003.003z" fill="#CDD630" style="mix-blend-mode:multiply"/>
        <path d="M15.658 3.897a.561.561 0 0 1-.42-.2v.124c.134.119.268.15.37.15.123 0 .297-.049.464-.251v-.013a.566.566 0 0 1-.412.192l-.002-.002z" fill="#D7C9DF" style="mix-blend-mode:multiply"/>
        <path d="M15.318 2.244c.048.084.309.556.443.784.103.172.303.455.495.414l.14-.232c-.196.326-.501-.13-.603-.301a7.244 7.244 0 0 1-.171-.298c-.071-.122-.233-.316-.28-.4-.082-.141-.223-.177-.367-.171.134.007.27.075.346.207l-.003-.003z" fill="#fff"/>
        <path d="M8.02 3.115c.012-.033.053-.033.065 0l.508 1.378a.42.42 0 0 0 .387.285.389.389 0 0 0 .187-.048c.195-.106.276-.366.195-.589l-.498-1.357c-.208-.548-.521-.508-.844.331z" fill="#DA2129"/>
        <path d="M8.977 4.777a.403.403 0 0 1-.306-.146c-.495-.587-1.253-.521-1.258-.521-.23.025-.435-.157-.458-.41-.023-.25.144-.475.374-.5.048-.005 1.176-.116 1.957.809a.486.486 0 0 1-.023.644.4.4 0 0 1-.283.122l-.003.002z" fill="#164170"/>
        <path d="M6.966 4.745c.212.096.457-.018.543-.25l.508-1.38c.324-.837.634-.88.844-.331l-.078-.21s-.005-.01-.005-.015c-.142-.344-.427-.551-.748-.541-.321.01-.597.232-.723.586-.142.4-.566 1.537-.571 1.55-.086.232.015.5.23.594v-.003z" fill="#DA2129"/>
        <path d="M8.844 2.74c-.207-.503-.51-.44-.826.374.012-.032.053-.032.065 0l.018.051c.306-.773.584-.796.743-.425z" fill="#CDD630" style="mix-blend-mode:multiply"/>
        <path d="M7.649 4.118c.06.005.131.018.207.033-.007-.276.134-.693.205-.885-.033-.007-.063-.015-.094-.02-.085.23-.22.594-.32.872h.002z" fill="#9F4B94" style="mix-blend-mode:multiply" opacity=".54"/>
        <path d="M8.786 2.575s-.005-.01-.005-.015l-.012-.028c-.203-.321-.47-.187-.748.528-.099.265-.46 1.304-.46 1.304.108-.293.369-.882.46-1.13.323-.836.634-.998.844-.45l-.079-.21z" fill="#fff"/>
        <path d="M9.286 4.015a2.258 2.258 0 0 0-1.18-.736 2.25 2.25 0 0 1 1.15.728.486.486 0 0 1-.023.645.4.4 0 0 1-.283.121.284.284 0 0 1-.081-.01c.038.01.073.018.114.018a.4.4 0 0 0 .283-.122c.169-.169.179-.46.022-.644h-.002z" fill="#fff" style="mix-blend-mode:overlay" opacity=".5"/>
        <path d="M10.959 3.036c.96-.023.824-1 0-1H9.882a.415.415 0 1 0 0 .828h1.077c.088 0 .131.03.131.089 0 .058-.066.078-.134.083h.003z" fill="#DA2129"/>
        <path d="M9.592 4.367c0 .23.187.415.417.415.23 0 .417-.185.417-.415V3.87c-.576 0-.834.076-.834.498z" fill="#164170"/>
        <path d="M10.96 3.037H10.008a.415.415 0 0 0-.417.414v.913c0-.423.258-.498.834-.498h.5c.658 0 1.001-.46 1.001-.915s-.338-.918-.965-.918c.821 0 .958.978 0 1.001l-.003.003z" fill="#164170"/>
        <path d="M10.961 2.035c.703 0 .822.746.132.905v.013c0 .06-.066.078-.134.083.96-.023.824-1 0-1h.002z" fill="#CDD630" style="mix-blend-mode:multiply"/>
        <path d="M9.592 4.367c0-.392.326-.414.834-.414v-.084c-.576 0-.834.076-.834.498z" fill="#9F4B94" style="mix-blend-mode:multiply" opacity=".54"/>
        <path d="M10.39 3.85c-.454 0-.71.045-.798.27v.243c0-.319.258-.458.834-.458l.485-.04-.523-.015h.002zM11.004 3.036c.803-.018.839-.705.348-.93a1.051 1.051 0 0 0-.391-.07c.743 0 .88.98 0 1h-.033.076z" fill="#fff"/>
        <path d="M13.51 3.036c.96-.023.823-1 0-1h-1.077a.415.415 0 1 0 0 .828h1.076c.089 0 .132.03.132.089 0 .058-.066.078-.134.083h.002z" fill="#DA2129"/>
        <path d="M12.139 4.367c0 .23.187.415.417.415.23 0 .417-.185.417-.415V3.87c-.58 0-.834.076-.834.498z" fill="#164170"/>
        <path d="M13.51 3.037H12.56a.415.415 0 0 0-.417.414v.913c0-.423.257-.498.834-.498h.5c.657 0 1.001-.46 1.001-.915s-.339-.918-.966-.918c.822 0 .958.978 0 1.001l-.002.003z" fill="#164170"/>
        <path d="M13.512 2.035c.703 0 .822.746.132.905v.013c0 .06-.066.078-.134.083.96-.023.824-1 0-1h.002z" fill="#CDD630" style="mix-blend-mode:multiply"/>
        <path d="M12.139 4.367c0-.392.326-.414.834-.414v-.084c-.58 0-.834.076-.834.498z" fill="#9F4B94" style="mix-blend-mode:multiply" opacity=".54"/>
        <path d="M12.937 3.85c-.455 0-.71.045-.798.27v.243c0-.319.258-.458.834-.458l.485-.04-.523-.015h.002zM13.552 3.036c.804-.018.84-.705.35-.93a1.051 1.051 0 0 0-.393-.07c.743 0 .88.98 0 1h-.032.075z" fill="#fff"/>
        <path fill-rule="evenodd" clip-rule="evenodd" d="M1.484 4.103c.266.26.804-.778 2.002-.003-.76-.434-1.45.071-1.183.246.187.12.382-.559 1.183-.246-1.16.069-1.557 1.13-1.137 1.13.298 0 .017-.897 1.137-1.13-1.226.781-1.014 2.18-.556 1.924.323-.182-.523-.988.556-1.924.285-1.423-.87-2.239-1.004-1.73-.093.358 1.077.305 1.004 1.73-.124-.866-.945-1.099-.92-.783.02.222.675-.043.92.783-.314.804.366.996.243 1.183-.172.266-.68-.422-.243-1.183-1.09-.957-2.376-.366-2.002.003zm.819-1.024.043.046.063.005-.03.056.012.063-.063-.01-.055.032-.008-.063-.048-.043.058-.028.025-.058h.003zm.829 1.777.043.046.063.007-.03.056.012.063-.063-.013-.055.033-.008-.063-.048-.043.058-.028.026-.058h.002zm-1.16-.513.056.058.08.008-.038.07.018.081-.08-.015-.071.04-.01-.08-.061-.053.073-.036.033-.075v.002zm1.41-2.401.094.099.134.012-.063.119.027.131-.131-.025-.116.068-.018-.134-.101-.09.121-.059.056-.124-.003.003z" fill="#DA2129"/>
        <path d="M0 13.242a5.82 5.82 0 0 0 11.636 0 5.818 5.818 0 1 0-11.636 0z" fill="#CF2228"/>
        <path d="M5.569 7.424a4.97 4.97 0 0 1 4.63 3.164 7.927 7.927 0 0 1-6.68 3.65 7.88 7.88 0 0 1-2.73-.483 4.968 4.968 0 0 1 4.78-6.331z" fill="url(#tvvich3pxc)"/>
        <path d="M4.005 16.923c-1.054-.139-1.66-.915-1.665-2.133 0-.167.005-.346.043-.541.086-.437.288-.766.574-.958a1.301 1.301 0 0 1-.26-.766c-.006-1.327.543-2.4 1.278-2.5a18.58 18.58 0 0 1 2.083-.146c.068 0 .136.005.202.013.665.088 1.15.624 1.153 1.279 0 .495-.263.887-.68 1.064.508.29.844.75.846 1.562.008 1.529-1.648 3.146-3.217 3.146a2.68 2.68 0 0 1-.357-.023v.003z" fill="#DA2129"/>
        <path d="M4.086 16.85c-1.054-.14-1.661-.918-1.666-2.134 0-.167.005-.346.043-.54.086-.438.288-.767.574-.959a1.302 1.302 0 0 1-.26-.766c-.006-1.326.543-2.4 1.278-2.5a19.1 19.1 0 0 1 2.085-.148c.069 0 .137.005.203.012.664.089 1.15.625 1.152 1.28 0 .495-.263.886-.68 1.063.506.291.842.751.847 1.562.008 1.53-1.648 3.147-3.218 3.15a2.69 2.69 0 0 1-.356-.023l-.002.002z" fill="#DA2129"/>
        <path d="M4.166 16.773c-1.054-.139-1.661-.917-1.666-2.133 0-.167.005-.346.043-.54.086-.438.288-.767.574-.959a1.301 1.301 0 0 1-.26-.766c-.006-1.327.543-2.4 1.278-2.5.387-.05 1.32-.146 2.085-.148.069 0 .137.005.203.012.664.089 1.15.624 1.152 1.28 0 .495-.263.886-.68 1.063.508.29.844.75.847 1.562.008 1.53-1.648 3.147-3.217 3.15-.124 0-.243-.008-.357-.023l-.002.002z" fill="#DA2129"/>
        <path d="M4.246 16.699c-1.054-.139-1.66-.915-1.666-2.133 0-.167.005-.347.043-.541.086-.437.288-.766.574-.958a1.302 1.302 0 0 1-.26-.766c-.006-1.327.543-2.401 1.278-2.5.387-.05 1.32-.146 2.086-.149.068 0 .136.005.202.013.664.088 1.15.627 1.152 1.279 0 .495-.263.887-.68 1.064.508.29.845.75.847 1.562.008 1.53-1.648 3.147-3.217 3.147a2.69 2.69 0 0 1-.357-.023l-.002.005z" fill="#DA2129"/>
        <path d="M4.326 16.623c-1.054-.139-1.66-.915-1.666-2.133 0-.167.005-.346.043-.54.086-.438.288-.766.574-.959a1.301 1.301 0 0 1-.26-.765c-.006-1.327.543-2.402 1.278-2.503.387-.05 1.32-.146 2.083-.149.068 0 .137.005.202.013.665.088 1.15.627 1.153 1.279 0 .495-.263.887-.68 1.064.508.29.844.75.847 1.562.007 1.529-1.648 3.146-3.218 3.15-.124 0-.245-.008-.356-.024v.005z" fill="#DA2129"/>
        <path d="M4.408 16.55c-1.054-.139-1.66-.917-1.666-2.133 0-.166.005-.346.043-.54.086-.438.288-.766.574-.956a1.302 1.302 0 0 1-.26-.766c-.005-1.327.543-2.4 1.278-2.502a19.1 19.1 0 0 1 2.086-.15c.068 0 .136.006.202.014.665.088 1.15.624 1.152 1.279 0 .495-.262.887-.68 1.064.509.29.845.75.847 1.562.008 1.529-1.648 3.146-3.217 3.149-.124 0-.245-.008-.357-.023l-.002.003z" fill="#DA2129"/>
        <path d="M4.286 16.364c-.887-.117-1.377-.756-1.38-1.797 0-.15.003-.314.038-.48.104-.526.405-.862.817-.93-.354-.236-.496-.57-.498-.852-.005-1.156.475-2.162 1.066-2.242.38-.05 1.3-.144 2.05-.147.056 0 .111.003.167.01.51.068.867.455.87.943 0 .526-.37.887-.926.902-.194.005-.52.018-.867.04 1.254.271 1.954.557 1.96 1.684.004 1.375-1.55 2.884-2.97 2.886-.112 0-.22-.007-.322-.02l-.005.003zm.331-2.922c.157.162.25.377.253.609 0 .063-.015.197-.038.306l-.02.098c.316-.126.738-.51.832-.768-.16-.07-.531-.174-1.024-.245h-.003z" fill="#fff"/>
        <path d="M4.324 16.141c-.783-.103-1.198-.652-1.203-1.587 0-.139.003-.29.033-.442.101-.51.407-.814.821-.817.036 0 .071 0 .104.008.374.05.65.339.65.687 0 .046-.013.165-.036.266-.04.18-.04.248-.038.31 0 .041.01.084.026.087.406 0 1.198-.65 1.195-1.07 0-.068-.442-.257-1.286-.371-.82-.111-1.113-.548-1.113-.92-.005-1.056.423-2.01.933-2.078.437-.058 1.34-.144 2.03-.144.05 0 .098.003.144.01.412.053.687.35.69.733 0 .43-.311.726-.776.738-.28.008-.827.03-1.327.076-.099.01-.15.048-.15.114 0 .043 0 .096.274.15 1.554.313 2.14.527 2.146 1.549.005 1.27-1.494 2.719-2.816 2.719-.104 0-.205-.008-.298-.018h-.003z" fill="#DA2129"/>
        <path d="M4.404 15.914c-.708-.093-1.051-.556-1.056-1.415 0-.132 0-.273.03-.412.126-.642.53-.71.698-.71.027 0 .058 0 .086.005.25.033.502.22.502.515 0 .025-.01.134-.03.23-.043.195-.043.278-.043.344 0 .174.094.248.17.258h.022c.468 0 1.32-.708 1.317-1.203 0-.306-.897-.473-1.433-.544-.594-.08-.966-.369-.966-.748-.005-1.079.43-1.89.824-1.943a18.327 18.327 0 0 1 2.012-.145c.043 0 .086 0 .127.008.328.043.54.263.543.561 0 .349-.26.592-.652.604-.283.01-.832.03-1.334.076-.167.015-.263.106-.263.248 0 .2.156.27.41.32 1.576.32 2.003.527 2.008 1.378.006 1.208-1.428 2.586-2.689 2.586-.098 0-.194-.005-.28-.018l-.003.005z" fill="#fff"/>
        <path d="M8.363 12.303a5.82 5.82 0 0 0 11.637 0 5.82 5.82 0 0 0-11.637 0z" fill="#1A4275"/>
        <path d="M13.914 6.514a4.97 4.97 0 0 1 4.63 3.164 7.927 7.927 0 0 1-6.68 3.65 7.88 7.88 0 0 1-2.73-.483 4.968 4.968 0 0 1 4.78-6.331z" fill="url(#t1xqhkw4wd)"/>
        <path d="M15.42 15.99c-1.054-.139-1.661-.915-1.666-2.133 0-.167.005-.346.043-.541.086-.437.288-.766.574-.958a1.301 1.301 0 0 1-.26-.766c-.006-1.327.543-2.401 1.278-2.5.387-.05 1.32-.146 2.083-.149.068 0 .136.005.202.013.665.088 1.15.624 1.153 1.279 0 .495-.263.887-.68 1.064.505.29.844.75.846 1.562.008 1.53-1.647 3.147-3.217 3.147-.124 0-.245-.008-.357-.023v.005z" fill="#164170"/>
        <path d="M15.5 15.914c-1.054-.14-1.661-.918-1.666-2.133 0-.167.005-.347.043-.541.086-.435.288-.766.574-.958a1.301 1.301 0 0 1-.26-.766c-.006-1.327.543-2.401 1.278-2.5.387-.05 1.32-.146 2.085-.149.069 0 .137.005.203.013.664.088 1.15.624 1.152 1.279 0 .495-.263.887-.68 1.064.506.29.845.75.847 1.562.008 1.529-1.648 3.146-3.218 3.149-.123 0-.245-.007-.356-.023l-.002.003z" fill="#164170"/>
        <path d="M15.582 15.842c-1.054-.14-1.66-.918-1.666-2.134 0-.167.005-.346.043-.54.086-.438.288-.766.574-.958a1.319 1.319 0 0 1-.26-.766c-.006-1.327.543-2.401 1.278-2.5a19.1 19.1 0 0 1 2.086-.15c.068 0 .136.006.202.014.664.088 1.15.624 1.152 1.278 0 .496-.263.888-.68 1.064.508.291.845.751.847 1.563.008 1.529-1.648 3.146-3.218 3.149-.123 0-.245-.008-.356-.023l-.002.003z" fill="#164170"/>
        <path d="M15.662 15.765c-1.054-.139-1.66-.917-1.666-2.133 0-.167.003-.346.043-.54.086-.438.288-.767.574-.959a1.301 1.301 0 0 1-.26-.765c-.006-1.327.543-2.402 1.278-2.5.387-.05 1.32-.147 2.083-.15.068 0 .137.006.202.013.665.089 1.15.627 1.153 1.28 0 .495-.26.886-.68 1.063.505.291.841.751.847 1.565.007 1.529-1.648 3.147-3.218 3.147-.124 0-.245-.008-.356-.023v.002z" fill="#164170"/>
        <path d="M15.744 15.693c-1.054-.139-1.66-.915-1.666-2.133 0-.167.005-.346.043-.541.086-.437.288-.766.574-.958a1.301 1.301 0 0 1-.26-.766c-.006-1.327.543-2.4 1.278-2.5.387-.05 1.32-.146 2.083-.149.068 0 .137.006.202.013.665.089 1.15.624 1.153 1.279 0 .495-.263.887-.68 1.064.505.29.844.75.847 1.562.007 1.53-1.648 3.147-3.218 3.15-.124 0-.245-.008-.356-.023v.002z" fill="#164170"/>
        <path d="M15.822 15.619c-1.054-.14-1.66-.915-1.666-2.133 0-.167.003-.347.043-.541.086-.437.288-.766.574-.956a1.302 1.302 0 0 1-.26-.765c-.005-1.327.543-2.402 1.278-2.503.387-.05 1.32-.146 2.083-.149.068 0 .137.005.202.013.665.088 1.15.624 1.153 1.279 0 .495-.263.887-.682 1.064.508.29.844.75.846 1.562.008 1.529-1.648 3.147-3.217 3.15a2.68 2.68 0 0 1-.357-.024l.003.003z" fill="#164170"/>
        <path d="M11.94 16.025c-.308-.04-.587-.2-.786-.445a1.37 1.37 0 0 1-.278-.637h-.12a4.48 4.48 0 0 1-.578-.033c-.49-.065-.867-.227-1.147-.5-.339-.326-.51-.774-.513-1.332-.008-1.552 2.48-4.15 3.97-4.15.101 0 .197.005.286.017.85.112 1.284.759 1.289 1.921 0 .304-.068.865-.192 1.565.412.205.692.637.695 1.122 0 .63-.427 1.097-1.097 1.193l-.099.015c-.032.132-.068.26-.103.395a1.178 1.178 0 0 1-1.16.884c-.056 0-.112-.002-.165-.01l-.002-.005z" fill="#164170"/>
        <path d="M12.02 15.949a1.21 1.21 0 0 1-.786-.445 1.37 1.37 0 0 1-.278-.637h-.119c-.215 0-.404-.01-.579-.033-.49-.066-.867-.227-1.147-.5-.339-.326-.51-.774-.513-1.332-.008-1.552 2.48-4.15 3.97-4.15.101 0 .197.005.286.017.85.111 1.284.758 1.289 1.921 0 .3-.068.865-.192 1.565.412.207.692.637.692 1.122.003.63-.427 1.097-1.094 1.193l-.099.015c-.032.131-.068.26-.103.394a1.178 1.178 0 0 1-1.16.885c-.056 0-.111-.003-.165-.01l-.002-.005z" fill="#164170"/>
        <path d="M12.102 15.874c-.308-.04-.587-.2-.786-.444a1.36 1.36 0 0 1-.278-.637h-.119c-.215 0-.404-.01-.579-.033-.49-.066-.867-.228-1.147-.5-.339-.327-.51-.774-.513-1.332-.008-1.552 2.48-4.15 3.97-4.15.101 0 .197.004.286.017.85.111 1.284.758 1.287 1.92 0 .304-.069.868-.193 1.565.412.208.693.637.693 1.123 0 .629-.427 1.097-1.097 1.193l-.099.015c-.032.131-.068.263-.103.394a1.18 1.18 0 0 1-1.16.885c-.056 0-.111-.003-.165-.01l.003-.006z" fill="#164170"/>
        <path d="M12.182 15.798a1.21 1.21 0 0 1-.786-.444 1.369 1.369 0 0 1-.278-.637h-.119c-.215 0-.404-.01-.579-.033-.49-.066-.867-.228-1.147-.5-.339-.327-.51-.774-.513-1.333-.008-1.552 2.48-4.15 3.97-4.15.102 0 .198.005.286.018.85.114 1.284.758 1.287 1.92 0 .304-.069.865-.193 1.565.413.205.69.637.696 1.122.002.63-.428 1.097-1.097 1.193l-.099.016c-.033.131-.068.26-.104.394a1.178 1.178 0 0 1-1.16.884c-.055 0-.11-.002-.164-.01v-.005z" fill="#164170"/>
        <path d="M12.26 15.725c-.308-.04-.586-.2-.786-.445a1.368 1.368 0 0 1-.278-.636h-.119c-.215 0-.404-.013-.579-.036-.49-.066-.866-.227-1.147-.5-.339-.326-.51-.774-.513-1.332-.008-1.552 2.48-4.15 3.97-4.153.102 0 .198.005.286.018.85.111 1.284.758 1.29 1.92 0 .301-.069.865-.193 1.565.412.205.693.637.695 1.122.003.63-.427 1.097-1.097 1.193-.033.005-.066.01-.098.013-.033.131-.069.263-.104.394a1.18 1.18 0 0 1-1.16.885c-.056 0-.111-.003-.164-.01l-.003.002z" fill="#164170"/>
        <path d="M12.342 15.652a1.21 1.21 0 0 1-.786-.447c-.144-.18-.24-.4-.278-.637h-.119c-.215 0-.404-.01-.579-.033-.49-.065-.866-.227-1.147-.5-.339-.326-.51-.774-.513-1.332-.008-1.552 2.48-4.15 3.97-4.15.102 0 .198.005.286.017.85.112 1.282.759 1.287 1.921 0 .304-.068.865-.192 1.565.412.205.692.637.692 1.122.003.63-.427 1.097-1.097 1.193l-.098.015c-.033.132-.069.26-.104.395a1.178 1.178 0 0 1-1.16.884c-.056 0-.111-.002-.164-.01l.002-.003z" fill="#164170"/>
        <path d="M15.7 15.432c-.887-.116-1.377-.756-1.38-1.797 0-.15.003-.31.038-.48.104-.526.405-.862.817-.93-.354-.235-.496-.57-.498-.852-.005-1.155.472-2.161 1.066-2.242.38-.05 1.3-.144 2.05-.147.056 0 .114.003.167.01.51.069.867.455.87.943.002.526-.37.887-.926.903-.194.005-.52.017-.867.04 1.254.27 1.954.556 1.96 1.683.004 1.375-1.55 2.884-2.973 2.887-.111 0-.22-.008-.321-.02l-.003.002zm.334-2.922c.157.162.25.377.25.61 0 .063-.015.197-.038.305l-.02.099c.319-.127.738-.51.832-.769-.16-.07-.531-.174-1.024-.245z" fill="#fff"/>
        <path d="M15.74 15.208c-.783-.104-1.198-.652-1.203-1.588 0-.138.003-.29.033-.442.101-.51.41-.814.821-.816.036 0 .071 0 .104.007.374.05.647.34.65.688 0 .045-.013.164-.036.265-.04.18-.04.248-.038.311 0 .04.01.084.026.086.406 0 1.198-.65 1.195-1.07 0-.067-.442-.257-1.286-.37-.82-.112-1.113-.55-1.115-.92-.005-1.057.422-2.01.933-2.078.437-.058 1.34-.144 2.03-.144.05 0 .098.002.143.01.412.053.688.349.69.733 0 .43-.308.725-.776.738-.28.007-.826.03-1.327.076-.098.01-.149.048-.146.113 0 .043 0 .096.273.15 1.552.313 2.14.528 2.143 1.549.005 1.271-1.494 2.72-2.816 2.722-.103 0-.204-.008-.298-.018v-.002z" fill="#164170"/>
        <path d="M15.818 14.98c-.707-.093-1.051-.555-1.056-1.415 0-.131.002-.273.03-.412.126-.642.528-.71.698-.71.03 0 .058 0 .086.005.25.033.502.22.502.516 0 .025-.01.134-.03.23-.043.194-.043.278-.043.343 0 .175.094.248.172.258h.023c.467 0 1.32-.707 1.317-1.203 0-.306-.898-.473-1.433-.543-.594-.081-.966-.37-.966-.748-.005-1.08.43-1.891.824-1.944a18.352 18.352 0 0 1 2.012-.144c.043 0 .086.002.126.007.329.043.544.263.544.562 0 .348-.26.591-.652.604-.284.01-.832.03-1.335.075-.167.016-.263.107-.263.248 0 .2.157.27.41.321 1.577.319 2.004.526 2.01 1.378.004 1.208-1.429 2.585-2.69 2.585-.099 0-.192-.005-.28-.017l-.006.005zM12.221 15.466a.894.894 0 0 1-.579-.323 1.012 1.012 0 0 1-.217-.645c0-.04 0-.08.005-.121-.136.005-.278.005-.427.005a3.93 3.93 0 0 1-.543-.033c-.425-.056-.744-.19-.974-.412-.265-.258-.404-.622-.404-1.084-.005-1.418 2.36-3.888 3.726-3.89.088 0 .171.005.25.015.895.119 1 .96 1.003 1.585 0 .318-.088.988-.237 1.79a.91.91 0 0 1 .74.896c0 .488-.346.855-.887.933a8.763 8.763 0 0 1-.258.035c-.045.185-.093.367-.144.554a.953.953 0 0 1-1.054.695zm-.058-4.183c-.346.339-.829.918-1.059 1.279.22-.005.488-.015.781-.035.099-.402.212-.87.28-1.241l-.002-.003z" fill="#fff"/>
        <path d="M12.262 15.242a.685.685 0 0 1-.45-.25.826.826 0 0 1-.169-.51c0-.122.02-.246.043-.342-.205.01-.425.015-.665.015-.194 0-.366-.01-.52-.03-.382-.05-.665-.167-.862-.357-.225-.217-.336-.52-.336-.93-.005-1.322 2.295-3.723 3.569-3.723.08 0 .156.005.227.013.581.076.822.475.824 1.375 0 .338-.106 1.092-.278 1.984h.048a.9.9 0 0 1 .119.008c.42.055.611.399.614.695 0 .407-.288.702-.753.768-.119.018-.24.033-.36.048-.052.217-.108.435-.168.657a.801.801 0 0 1-.776.586c-.036 0-.074 0-.107-.007zm.182-4.436c-.336.134-1.531 1.555-1.605 1.908.299 0 .733-.007 1.229-.048.172-.677.361-1.48.374-1.862l.002.002z" fill="#164170"/>
        <path d="M12.34 15.014a.514.514 0 0 1-.345-.187.633.633 0 0 1-.129-.402c0-.104.018-.233.053-.367.003-.007.01-.03.01-.055v-.101l-.095.005c-.23.012-.478.02-.754.02-.19 0-.354-.01-.503-.028-.348-.045-.601-.15-.77-.31-.19-.183-.281-.446-.284-.805-.005-1.24 2.247-3.589 3.443-3.589.076 0 .147.005.21.013.414.056.675.275.677 1.203 0 .334-.114 1.137-.296 2.047l-.025.124.121-.01c.043-.002.096-.002.134-.002.036 0 .069 0 .099.005a.517.517 0 0 1 .468.523c0 .333-.246.579-.645.634a9.18 9.18 0 0 1-.382.05l-.06.008-.013.048c-.056.23-.114.458-.177.693a.67.67 0 0 1-.655.49c-.03 0-.06 0-.088-.005l.005-.002zm.209-4.449c-.334 0-1.78 1.696-1.777 2.085 0 .076.048.132.124.142h.028c.298 0 .763-.01 1.296-.053l.05-.005.014-.05c.275-1.088.391-1.681.389-1.985 0-.07-.046-.131-.109-.139H12.551l-.002.005z" fill="#fff"/>
        <path d="M6.683 5.968c0-.015.01-.028.02-.04a.162.162 0 0 1 .038-.033.19.19 0 0 1 .099-.03.19.19 0 0 1 .066.012c.02.01.037.02.053.036a.15.15 0 0 1 .035.053c.008.02.013.04.013.06a.137.137 0 0 1-.016.063.19.19 0 0 1-.037.051.217.217 0 0 1-.126.045.302.302 0 0 1-.12-.022.277.277 0 0 1-.15-.157.34.34 0 0 1-.019-.116c0-.033.005-.076.013-.124a.356.356 0 0 1 .045-.129.171.171 0 0 1-.03-.076.51.51 0 0 1-.008-.083c0-.056.015-.101.046-.142a.399.399 0 0 1 .114-.1.502.502 0 0 1 .151-.061.63.63 0 0 1 .308-.003.668.668 0 0 1 .147.05c.046.023.081.051.111.084a.185.185 0 0 1 .043.119v.733h-.134v-.69c0-.033-.01-.061-.027-.086a.212.212 0 0 0-.076-.063.422.422 0 0 0-.218-.053.627.627 0 0 0-.136.015.373.373 0 0 0-.121.05.226.226 0 0 0-.076.086.192.192 0 0 0-.005.127.19.19 0 0 1 .065-.054.19.19 0 0 1 .207.023.138.138 0 0 1 .054.116c0 .023-.005.04-.013.061a.123.123 0 0 1-.035.046.168.168 0 0 1-.05.03.17.17 0 0 1-.062.01.325.325 0 0 1-.088-.013.164.164 0 0 1-.068-.043.318.318 0 0 0-.033.131c0 .024 0 .046.002.067.003.02.01.038.02.05h-.002zM6.9 5.63c0-.022-.007-.037-.022-.045a.089.089 0 0 0-.05-.013.071.071 0 0 0-.049.018c-.015.013-.025.025-.028.04.01.01.023.02.036.03.012.01.028.016.04.016a.11.11 0 0 0 .048-.01c.018-.005.025-.018.025-.036zm-.005.395a.05.05 0 0 0-.017-.04.066.066 0 0 0-.043-.018.055.055 0 0 0-.043.017.054.054 0 0 0-.018.04c0 .016.005.031.018.041.012.01.025.015.043.015.017 0 .03-.005.043-.015a.05.05 0 0 0 .017-.04zM8.62 5.84a.302.302 0 0 1-.125.252.395.395 0 0 1-.134.068.556.556 0 0 1-.161.023.78.78 0 0 1-.172-.02.524.524 0 0 1-.15-.058.319.319 0 0 1-.106-.094.195.195 0 0 1-.04-.121c0-.056.015-.099.048-.13.03-.032.076-.047.134-.047a.174.174 0 0 1 .111.046c.015.015.025.03.036.05.01.02.012.04.012.066 0 .032-.01.063-.028.093a.129.129 0 0 1-.08.058.496.496 0 0 0 .227.048.33.33 0 0 0 .205-.065.22.22 0 0 0 .086-.177v-.314a.236.236 0 0 0-.026-.113.211.211 0 0 0-.07-.079.337.337 0 0 0-.107-.045.594.594 0 0 0-.247-.005.406.406 0 0 0-.094.03.18.18 0 0 0-.066.056.121.121 0 0 0-.025.078h-.131c0-.053.015-.096.043-.134a.331.331 0 0 1 .106-.089.503.503 0 0 1 .139-.048.73.73 0 0 1 .308.006.506.506 0 0 1 .152.063c.045.028.08.065.109.11a.303.303 0 0 1 .043.163v.328h.002zm-.65.027a.05.05 0 0 0-.018-.04.072.072 0 0 0-.043-.018.063.063 0 0 0-.048.018.054.054 0 0 0-.018.04.06.06 0 0 0 .018.046.063.063 0 0 0 .048.017c.018 0 .03-.005.043-.017.012-.01.018-.026.018-.046zM9.379 6.158v-.72a.136.136 0 0 0-.023-.079.203.203 0 0 0-.055-.058.382.382 0 0 0-.071-.038.324.324 0 0 0-.207-.005.17.17 0 0 0-.094.07.066.066 0 0 1 .028-.007h.03c.05 0 .091.015.119.043a.15.15 0 0 1 .043.109.147.147 0 0 1-.048.114.16.16 0 0 1-.119.042c-.058 0-.103-.017-.134-.055a.224.224 0 0 1-.045-.15c0-.035.007-.068.025-.1a.32.32 0 0 1 .17-.147.32.32 0 0 1 .118-.023c.056 0 .109.008.157.02a.404.404 0 0 1 .124.061.27.27 0 0 1 .08.096c.02.038.03.079.03.124v.703h-.13.002zm-.324-.685a.065.065 0 0 0-.02-.048.069.069 0 0 0-.05-.018.069.069 0 0 0-.05.018.065.065 0 0 0-.021.048c0 .02.008.035.02.048.013.012.03.017.05.017.02 0 .039-.005.051-.017a.065.065 0 0 0 .02-.048zM9.814 5.158c.048 0 .088.008.121.02.033.013.061.033.084.056a.193.193 0 0 1 .048.078.26.26 0 0 1 .015.089v.528c0 .03.007.056.023.076.015.02.035.035.06.048.026.01.05.02.081.023a.462.462 0 0 0 .084.005c.027 0 .05-.005.078-.013a.331.331 0 0 0 .073-.038.166.166 0 0 0 .074-.136V5.16h.133v.76c0 .043-.01.081-.032.114a.326.326 0 0 1-.084.084.392.392 0 0 1-.113.053.399.399 0 0 1-.12.017h-.073c-.025 0-.053-.005-.078-.007-.025-.005-.05-.01-.076-.02a.23.23 0 0 1-.066-.033.095.095 0 0 1-.032.03c-.015.008-.028.015-.043.018-.015.005-.03.007-.046.01l-.038.002c-.058 0-.1-.015-.129-.045a.154.154 0 0 1-.045-.114c0-.02.005-.04.013-.06a.15.15 0 0 1 .035-.054.14.14 0 0 1 .056-.035.16.16 0 0 1 .07-.013.4.4 0 0 1 .066.008v-.445c0-.02 0-.038-.003-.058a.118.118 0 0 0-.015-.05.111.111 0 0 0-.04-.036.158.158 0 0 0-.076-.013v-.116h-.005zm.003.87c0 .017.007.033.017.045.013.013.03.018.05.018a.07.07 0 0 0 .049-.018.063.063 0 0 0 .02-.045.063.063 0 0 0-.02-.046.067.067 0 0 0-.048-.018.081.081 0 0 0-.05.018.06.06 0 0 0-.018.046zM11.232 5.785a.17.17 0 0 0-.06.01.17.17 0 0 0-.054.025.162.162 0 0 0-.043.04.102.102 0 0 0-.023.051.188.188 0 0 1 .122-.048.19.19 0 0 1 .12.046c.016.015.031.03.039.05.01.02.015.04.015.066a.153.153 0 0 1-.048.116.174.174 0 0 1-.124.046.23.23 0 0 1-.172-.068.262.262 0 0 1-.066-.185c0-.038.01-.07.028-.103a.263.263 0 0 1 .071-.079.336.336 0 0 1 .195-.068.272.272 0 0 1 .243.136c.014.028.032.056.045.086.002.01.01.023.018.04.007.018.017.034.027.051.01.018.02.033.03.046.01.012.02.018.031.018.02 0 .035-.013.048-.038a.379.379 0 0 0 .033-.091c.007-.036.015-.074.02-.112a.9.9 0 0 0-.002-.253.528.528 0 0 0-.033-.12.835.835 0 0 1-.185.09.53.53 0 0 1-.18.033c-.03 0-.062 0-.095-.002-.033 0-.068-.008-.101-.013a.607.607 0 0 1-.096-.03.239.239 0 0 1-.114-.101.14.14 0 0 1 .01-.134.183.183 0 0 1 .06-.056.385.385 0 0 1 .087-.038.752.752 0 0 1 .096-.023c.032-.005.063-.01.093-.01l.076-.002c.076 0 .144.01.2.028a.44.44 0 0 1 .149.078.3.3 0 0 0 .033-.053.255.255 0 0 0 .022-.056l.13.025a.333.333 0 0 1-.039.1.499.499 0 0 1-.063.085.562.562 0 0 1 .063.15c.013.055.02.113.02.179 0 .035-.002.08-.007.136a.71.71 0 0 1-.033.162.388.388 0 0 1-.07.136.153.153 0 0 1-.124.058.157.157 0 0 1-.094-.025.215.215 0 0 1-.06-.066.435.435 0 0 1-.044-.083c-.012-.03-.025-.056-.035-.08a.962.962 0 0 1-.028-.051.215.215 0 0 0-.033-.046.15.15 0 0 0-.045-.033.169.169 0 0 0-.066-.012l.013-.008zm.093-.326c.053 0 .106-.01.16-.03a.559.559 0 0 0 .141-.081.36.36 0 0 0-.111-.06.58.58 0 0 0-.16-.021c-.02 0-.048 0-.083.007-.035.006-.068.01-.1.018a.319.319 0 0 0-.084.03c-.023.013-.036.026-.033.04 0 .014.007.024.02.034a.153.153 0 0 1 .03.023c.028.012.061.022.101.03.04.005.081.01.122.01h-.003zm-.08.569c0-.018-.006-.033-.018-.043a.061.061 0 0 0-.046-.018.06.06 0 0 0-.045.018c-.013.012-.02.025-.02.043 0 .015.005.03.02.043a.06.06 0 0 0 .045.017.061.061 0 0 0 .046-.017.056.056 0 0 0 .017-.043zM11.74 6.534a.383.383 0 0 1-.042.177c-.013.025-.023.048-.036.068l-.03.05-.109-.06s.016-.018.026-.033a.495.495 0 0 0 .055-.111c.008-.02.013-.038.018-.056a.189.189 0 0 1-.046.018.17.17 0 0 1-.106-.003.18.18 0 0 1-.053-.03.123.123 0 0 1-.035-.045.115.115 0 0 1-.013-.059c0-.045.015-.08.048-.108a.175.175 0 0 1 .119-.043c.04 0 .073.007.098.025a.206.206 0 0 1 .061.063.3.3 0 0 1 .043.15l.003-.003zm-.138-.091a.067.067 0 0 0-.023-.05.07.07 0 0 0-.053-.02.081.081 0 0 0-.053.02.067.067 0 0 0 0 .1.07.07 0 0 0 .053.02c.02 0 .038-.007.053-.02a.067.067 0 0 0 .023-.05zM13.079 6.158h-.134v-.75c0-.046-.018-.079-.053-.099a.362.362 0 0 0-.157-.028.29.29 0 0 0-.079.01.444.444 0 0 0-.08.03.474.474 0 0 0-.079.044.321.321 0 0 0-.063.048v.581c0 .06-.018.109-.056.144-.035.035-.085.05-.146.05a.175.175 0 0 1-.124-.042.156.156 0 0 1-.046-.117c0-.048.018-.088.051-.116a.18.18 0 0 1 .119-.043h.033c.012 0 .022.003.035.005v-.407h-.065c-.054 0-.097-.012-.127-.04-.03-.025-.046-.066-.046-.119 0-.05.016-.088.046-.114a.194.194 0 0 1 .126-.04c.04 0 .081.01.117.033.035.022.06.053.075.088a.32.32 0 0 1 .064-.048.431.431 0 0 1 .154-.066c.028-.005.053-.01.078-.01.04 0 .081.005.124.013a.377.377 0 0 1 .197.099.122.122 0 0 1 .033.085v.807l.002.002zm-.845-.8h.03s.023 0 .036-.006c0-.02-.008-.043-.015-.066-.01-.022-.025-.035-.048-.035a.097.097 0 0 0-.048.013.04.04 0 0 0-.023.037c0 .02.008.033.02.043.015.008.03.013.05.013h-.002zm.079.671a.063.063 0 0 0-.02-.045.063.063 0 0 0-.048-.018.08.08 0 0 0-.054.018.059.059 0 0 0-.022.048c0 .02.007.035.022.048.016.013.033.02.053.02a.07.07 0 0 0 .068-.068v-.003z" fill="#164170"/>
    </g>
    <defs>
        <linearGradient id="tvvich3pxc" x1="3.198" y1="7.558" x2="6.289" y2="13.74" gradientUnits="userSpaceOnUse">
            <stop stop-color="#7E1419"/>
            <stop offset=".08" stop-color="#86151A"/>
            <stop offset=".7" stop-color="#C31E24"/>
            <stop offset="1" stop-color="#DC2228"/>
        </linearGradient>
        <linearGradient id="t1xqhkw4wd" x1="11.544" y1="6.645" x2="14.637" y2="12.83" gradientUnits="userSpaceOnUse">
            <stop stop-color="#2081C1"/>
            <stop offset=".22" stop-color="#1F6DA5"/>
            <stop offset=".75" stop-color="#1C3F68"/>
            <stop offset="1" stop-color="#1C2E50"/>
        </linearGradient>
        <clipPath id="aja7mxrf5a">
            <path fill="#fff" transform="translate(0 .5)" d="M0 0h20v20H0z"/>
        </clipPath>
        <filter id="32awm8alrb" x="0" y="1.939" width="20.79" height="17.911" filterUnits="userSpaceOnUse" color-interpolation-filters="sRGB">
            <feFlood flood-opacity="0" result="BackgroundImageFix"/>
            <feColorMatrix in="SourceAlpha" values="0 0 0 0 0 0 0 0 0 0 0 0 0 0 0 0 0 0 127 0" result="hardAlpha"/>
            <feOffset dx=".79" dy=".79"/>
            <feColorMatrix values="0 0 0 0 0 0 0 0 0 0 0 0 0 0 0 0 0 0 0.3 0"/>
            <feBlend in2="BackgroundImageFix" result="effect1_dropShadow_3519_15682"/>
            <feBlend in="SourceGraphic" in2="effect1_dropShadow_3519_15682" result="shape"/>
        </filter>
    </defs>
</svg>
