<svg width="16" height="17" viewBox="0 0 16 17" fill="none" xmlns="http://www.w3.org/2000/svg">
    <g clip-path="url(#v5tba4i04a)" fill="#323D4C">
        <path d="M8 1.607c2.137 0 2.39.01 3.231.047.781.034 1.203.166 1.485.275.372.144.64.319.918.597.282.281.454.547.597.919.11.28.24.706.275 1.484.038.844.047 1.097.047 3.231 0 2.138-.01 2.39-.047 3.232-.034.78-.165 1.203-.275 1.484-.143.372-.319.64-.597.919a2.46 2.46 0 0 1-.918.597c-.282.109-.707.24-1.485.274-.844.038-1.097.047-3.231.047-2.138 0-2.39-.009-3.231-.046-.782-.035-1.203-.166-1.485-.275a2.472 2.472 0 0 1-.918-.597 2.46 2.46 0 0 1-.597-.92c-.11-.28-.24-.705-.275-1.483-.038-.844-.047-1.097-.047-3.232 0-2.137.01-2.39.047-3.231.034-.781.165-1.203.275-1.484.144-.372.319-.641.597-.92a2.46 2.46 0 0 1 .918-.596c.282-.11.707-.24 1.485-.275.84-.037 1.093-.047 3.231-.047zm0-1.44c-2.172 0-2.444.009-3.297.046-.85.038-1.434.175-1.94.372a3.905 3.905 0 0 0-1.42.925A3.92 3.92 0 0 0 .42 2.926c-.197.51-.335 1.09-.372 1.94C.009 5.724 0 5.995 0 8.166c0 2.172.01 2.444.047 3.297.037.85.175 1.435.372 1.941.206.528.478.975.925 1.419.444.444.89.718 1.415.922.51.197 1.091.334 1.941.371.853.038 1.125.047 3.297.047s2.444-.009 3.297-.047c.85-.037 1.434-.175 1.94-.371a3.91 3.91 0 0 0 1.416-.922 3.91 3.91 0 0 0 .922-1.416c.197-.51.334-1.09.372-1.94.037-.854.047-1.126.047-3.297 0-2.172-.01-2.444-.047-3.297-.038-.85-.175-1.435-.372-1.94a3.748 3.748 0 0 0-.916-1.423 3.911 3.911 0 0 0-1.415-.922C12.73.392 12.15.254 11.3.217c-.856-.041-1.128-.05-3.3-.05z"/>
        <path d="M8 4.057a4.11 4.11 0 0 0 0 8.219 4.11 4.11 0 0 0 0-8.219zm0 6.775A2.666 2.666 0 1 1 8 5.5a2.666 2.666 0 0 1 0 5.332zM13.231 3.894a.96.96 0 1 1-1.919 0 .96.96 0 0 1 1.92 0z"/>
    </g>
    <defs>
        <clipPath id="v5tba4i04a">
            <path fill="#fff" transform="translate(0 .167)" d="M0 0h16v16H0z"/>
        </clipPath>
    </defs>
</svg>
