<svg width="59" height="16" viewBox="0 0 59 16" fill="none" xmlns="http://www.w3.org/2000/svg">
    <g clip-path="url(#mmyxxko6ua)">
        <path d="M8.97 6c5.185-.122 4.448-5.435.012-5.435H3.168a2.227 2.227 0 0 0-1.608.645 2.252 2.252 0 0 0-.67 1.606 2.262 2.262 0 0 0 .67 1.605 2.237 2.237 0 0 0 1.608.646h5.814c.474 0 .712.161.712.477 0 .315-.361.426-.723.451V6z" fill="#D51317"/>
        <path d="M1.584 13.215c.01.594.252 1.16.673 1.577a2.246 2.246 0 0 0 3.16 0c.42-.417.662-.983.672-1.577v-2.703c-3.118 0-4.505.408-4.505 2.703z" fill="#004070"/>
        <path d="M8.971 6c-.058.004-.12.004-.179.004H3.837a2.24 2.24 0 0 0-1.59.656 2.265 2.265 0 0 0-.663 1.595v4.957c0-2.298 1.387-2.702 4.505-2.702H8.8c3.549 0 5.406-2.497 5.406-4.96a5.002 5.002 0 0 0-1.542-3.623A4.947 4.947 0 0 0 8.986.566c4.436 0 5.174 5.31-.011 5.434H8.97z" fill="#004070"/>
        <path d="M8.981.57c3.794 0 4.433 4.042.705 4.912 0 .022.008.044.008.07 0 .323-.362.426-.723.452 5.185-.121 4.447-5.435.01-5.435z" fill="#DCDC02"/>
        <path opacity=".54" d="M1.584 13.214c0-2.129 1.763-2.247 4.505-2.254v-.452c-3.118 0-4.505.408-4.505 2.703v.003z" fill="#AC4191"/>
        <path d="M5.898 10.428c-2.45 0-3.832.253-4.312 1.472v1.315c0-1.728 1.387-2.49 4.505-2.49l2.625-.213-2.818-.084zM9.207 6c4.334-.1 4.528-3.826 1.885-5.05a5.664 5.664 0 0 0-2.11-.386c4.009 0 4.75 5.321-.012 5.435-.058.004-.12.004-.179.004h.237c.059 0 .121 0 .18-.003z" fill="#fff"/>
        <path d="M29.09 12.792a3.118 3.118 0 0 1-.126.869 2.48 2.48 0 0 1-.35.733c-.15.21-.328.375-.522.486a1.19 1.19 0 0 1-.612.166h-7.297c-.21.005-.418-.05-.613-.16a1.661 1.661 0 0 1-.523-.486c-.15-.21-.268-.46-.35-.736a3.096 3.096 0 0 1-.123-.871c0-.3.042-.596.123-.872.082-.275.2-.526.35-.735.15-.21.328-.375.523-.486.195-.111.403-.165.613-.16h7.297c.21-.003.418.053.612.165.195.111.372.277.521.486.15.21.269.458.35.733.083.275.126.57.127.868z" fill="#D51317"/>
        <path d="M19.34 14.915c3.153.594 3.569-.835 3.553-2.115-.048-.768-.08-1.14-.272-2.272-.407-.63-.128-.128-.128-.128.036.015-.016.083 0 0-.8 0-.78.034-.8 0l.562.211c-.507 4.49-.563 2.989-2.963 3.789l.049.514z" fill="#DCDC02"/>
        <path d="M20.167 15.06a2.26 2.26 0 0 1-1.601-.683 2.288 2.288 0 0 1-.652-1.623V2.304A2.278 2.278 0 0 1 18.56.678 2.252 2.252 0 0 1 20.167 0a2.242 2.242 0 0 1 1.607.677 2.267 2.267 0 0 1 .646 1.628v10.449a2.295 2.295 0 0 1-.652 1.623 2.271 2.271 0 0 1-1.601.683z" fill="#004070"/>
        <path d="M18.709 14.541c.377.353.869.558 1.385.579.339 0 .848-.08.848-.08 1.6-.64 1.712-1.6 1.712-3.84 0-.8-.24-4.8-.24-4.8.08 3.2-.028 4.29-.24 5.6-.372 2.303-2.88 3.2-3.872 2.08l.256.32.15.141z" fill="#fff"/>
        <path d="M37.549 6.462a.184.184 0 0 1 .175-.134.182.182 0 0 1 .176.134l2.74 7.48c.149.443.429.83.803 1.108.375.278.825.433 1.29.445.356 0 .705-.092 1.015-.266a2.63 2.63 0 0 0 1.102-1.408 2.645 2.645 0 0 0-.05-1.79l-2.694-7.362c-1.123-2.981-2.808-2.754-4.553 1.794l-.004-.001z" fill="#D51317"/>
        <path d="M42.73 15.498a2.158 2.158 0 0 1-1.658-.797c-2.67-3.18-6.762-2.828-6.805-2.82a2.305 2.305 0 0 1-1.698-.588 2.328 2.328 0 0 1-.77-1.63c-.08-.627.085-1.26.462-1.767a2.418 2.418 0 0 1 1.554-.947c1.979-.14 3.963.183 5.796.945a12.808 12.808 0 0 1 4.767 3.447 2.653 2.653 0 0 1-.127 3.5 2.141 2.141 0 0 1-1.526.656h.005z" fill="#004070"/>
        <path d="M31.864 15.315a2.178 2.178 0 0 0 2.49-.57c.2-.23.352-.498.445-.79l2.746-7.49c1.746-4.546 3.428-4.773 4.553-1.794l-.416-1.142-.033-.089C40.893 1.582 39.346.451 37.61.504c-1.734.052-3.224 1.262-3.903 3.182-.767 2.166-3.056 8.342-3.078 8.409a2.576 2.576 0 0 0-.004 1.854c.23.597.672 1.086 1.242 1.371l-.004-.005z" fill="#D51317"/>
        <path d="M42.003 4.43c-1.123-2.728-2.76-2.392-4.458 2.03a.184.184 0 0 1 .175-.132.182.182 0 0 1 .176.133l.098.272C39.646 2.528 41.15 2.407 42 4.426l.004.004z" fill="#DCDC02"/>
        <path opacity=".54" d="M35.55 11.91c.378.04.754.1 1.124.184-.044-1.494.723-3.763 1.11-4.803a15.71 15.71 0 0 0-.5-.11c-.455 1.249-1.182 3.231-1.733 4.73z" fill="#AC4191"/>
        <path d="m41.683 3.532-.033-.089-.066-.15c-1.092-1.745-2.541-1.021-4.035 2.874-.529 1.443-2.486 7.08-2.486 7.08.587-1.595 1.993-4.788 2.486-6.14 1.745-4.546 3.428-5.42 4.553-2.437l-.417-1.142-.002.004z" fill="#fff"/>
        <path opacity=".5" d="M44.384 11.341a12.196 12.196 0 0 0-6.378-3.998 12.153 12.153 0 0 1 6.21 3.95 2.653 2.653 0 0 1-.127 3.5 2.157 2.157 0 0 1-1.526.657 2.258 2.258 0 0 1-.442-.048 2.01 2.01 0 0 0 1.435-.077c.262-.113.499-.278.697-.484a2.65 2.65 0 0 0 .127-3.5h.004z" fill="#fff"/>
        <path d="M52.205 15.452a2.342 2.342 0 0 1-1.63-.755 2.369 2.369 0 0 1-.623-1.694V8.788a2.283 2.283 0 0 1 .594-1.72 2.259 2.259 0 0 1 1.659-.73 2.25 2.25 0 0 1 1.66.73 2.275 2.275 0 0 1 .593 1.72v4.215a2.37 2.37 0 0 1-.623 1.693 2.344 2.344 0 0 1-1.63.756z" fill="#004070"/>
        <path d="M56.988.901a2.19 2.19 0 0 0-3.056.852L52.398 4.33a.211.211 0 0 1-.184.11.209.209 0 0 1-.185-.11s.198.399.925 1.623c.727 1.225 2.03 3.048 3.254.988l1.537-2.591a2.576 2.576 0 0 0-.763-3.448h.006z" fill="#D51317"/>
        <path d="M52.961 5.946c-.73-1.226-.925-1.623-.925-1.623-.383-.657-1.255-2.144-1.52-2.6A2.166 2.166 0 0 0 49.137.64a2.146 2.146 0 0 0-1.725.302 2.579 2.579 0 0 0-.723 3.37c.205.354 2.001 3.49 2.772 4.639.274.5.673.922 1.157 1.222.485.3 1.038.47 1.606.492h.008c.748 0 1.85-.32 2.837-1.806.021-.033.043-.067.062-.1l1.084-1.824c-1.223 2.06-2.523.236-3.253-.988z" fill="#004070"/>
        <path d="M52.96 5.333a50.879 50.879 0 0 1-.576-.984.21.21 0 0 1-.28.054.21.21 0 0 1-.07-.076s.197.399.924 1.624c.727 1.224 2.03 3.047 3.254.988l.401-.672c-1.223 2.06-2.925.294-3.655-.93l.003-.004z" fill="#DCDC02"/>
        <path d="M52.231 10.665h-.007a3.025 3.025 0 0 1-2.27-1.087v.669a2.934 2.934 0 0 0 1.99.811h.006a3.187 3.187 0 0 0 2.511-1.362v-.07a3.062 3.062 0 0 1-2.23 1.04z" fill="#E6D9EC"/>
        <path d="M50.402 1.695c.26.455 1.661 3.022 2.392 4.248.555.93 1.643 2.468 2.673 2.247l.748-1.262c-1.057 1.773-2.694-.694-3.253-1.634-.73-1.226-.925-1.623-.925-1.623-.383-.657-1.255-1.715-1.52-2.17a2.039 2.039 0 0 0-1.982-.936 2.272 2.272 0 0 1 1.87 1.13h-.003z" fill="#fff"/>
    </g>
    <defs>
        <clipPath id="mmyxxko6ua">
            <path fill="#fff" transform="translate(.89)" d="M0 0h57.22v16H0z"/>
        </clipPath>
    </defs>
</svg>
