<svg width="20" height="20" viewBox="0 0 20 20" fill="none" xmlns="http://www.w3.org/2000/svg">
    <path d="M5.833 6.666H4.168a.833.833 0 0 1-.833-.833V4.166a.833.833 0 0 1 .833-.833h1.667a.833.833 0 0 1 .833.833v1.667a.833.833 0 0 1-.833.833zM15.834 6.666h-1.667a.833.833 0 0 1-.833-.833V4.166a.833.833 0 0 1 .833-.833h1.667a.833.833 0 0 1 .833.833v1.667a.834.834 0 0 1-.834.833zM5.833 16.666H4.168a.834.834 0 0 1-.833-.833v-1.667a.833.833 0 0 1 .833-.833h1.667a.833.833 0 0 1 .833.833v1.667a.833.833 0 0 1-.833.833z" fill="#ADB3BA"/>
    <path d="M10 3.333v.833m5 9.167h1.667m-5 0H10v3.333M10 7.5V10m0 0h.008M10 10h3.342m-.008 6.666h3.333M3.333 10h3.334m10 0h.008M4.167 6.666h1.667a.833.833 0 0 0 .833-.833V4.166a.833.833 0 0 0-.833-.833H4.167a.833.833 0 0 0-.833.833v1.667a.833.833 0 0 0 .833.833zm10 0h1.667a.833.833 0 0 0 .833-.833V4.166a.834.834 0 0 0-.834-.833h-1.666a.833.833 0 0 0-.833.833v1.667a.833.833 0 0 0 .833.833zm-10 10h1.667a.834.834 0 0 0 .833-.833v-1.667a.833.833 0 0 0-.833-.833H4.167a.833.833 0 0 0-.833.833v1.667a.833.833 0 0 0 .833.833z" stroke="#ADB3BA" stroke-width="2" stroke-linecap="round" stroke-linejoin="round"/>
</svg>
