<svg width="16" height="17" viewBox="0 0 16 17" fill="none" xmlns="http://www.w3.org/2000/svg">
    <g clip-path="url(#2kx7jd4ska)">
        <path d="M5.033 14.666c6.037 0 9.34-5.002 9.34-9.338 0-.14-.004-.285-.01-.425A6.667 6.667 0 0 0 16 3.203a6.472 6.472 0 0 1-1.884.516 3.3 3.3 0 0 0 1.443-1.815 6.599 6.599 0 0 1-2.083.796A3.287 3.287 0 0 0 7.88 5.693a9.323 9.323 0 0 1-6.765-3.427 3.286 3.286 0 0 0 1.016 4.38 3.287 3.287 0 0 1-1.487-.409v.04a3.281 3.281 0 0 0 2.634 3.22c-.483.132-.99.15-1.481.056a3.29 3.29 0 0 0 3.065 2.281A6.583 6.583 0 0 1 0 13.192a9.312 9.312 0 0 0 5.033 1.474z" fill="#323D4C"/>
    </g>
    <defs>
        <clipPath id="2kx7jd4ska">
            <path fill="#fff" transform="translate(0 .167)" d="M0 0h16v16H0z"/>
        </clipPath>
    </defs>
</svg>
