<svg width="40" height="29" viewBox="0 0 40 29" fill="none" xmlns="http://www.w3.org/2000/svg">
    <g clip-path="url(#s2n2ayk97a)">
        <path d="M34.567 27.985s-10.924.3-14.565.3-14.565-.3-14.565-.3c-2.82 0-5.13-2.277-5.13-5.062 0 0-.305-6.332-.305-8.447 0-2.116.305-8.448.305-8.448C.306 3.245 2.613.968 5.436.968c0 0 10.923-.301 14.564-.301 3.642 0 14.566.3 14.566.3 2.82 0 5.13 2.278 5.13 5.062 0 0 .305 6.327.305 8.448 0 2.12-.305 8.448-.305 8.448 0 2.783-2.308 5.061-5.13 5.061l.001-.001z" fill="red"/>
        <path fill-rule="evenodd" clip-rule="evenodd" d="M16.17 20.648V8.305l10.106 6.17-10.106 6.173z" fill="#fff"/>
    </g>
    <defs>
        <clipPath id="s2n2ayk97a">
            <path fill="#fff" transform="translate(0 .667)" d="M0 0h40v27.619H0z"/>
        </clipPath>
    </defs>
</svg>
