<svg width="16" height="17" viewBox="0 0 16 17" fill="none" xmlns="http://www.w3.org/2000/svg">
    <g clip-path="url(#lm4u9vhhwa)">
        <path d="M15.681 4.29a2.012 2.012 0 0 0-1.414-1.424c-1.251-.336-6.251-.336-6.251-.336s-5 0-6.251.336A2.011 2.011 0 0 0 .35 4.29C.016 5.546.016 8.166.016 8.166s0 2.62.334 3.877a2.012 2.012 0 0 0 1.415 1.423c1.25.337 6.25.337 6.25.337s5 0 6.252-.337a2.01 2.01 0 0 0 1.414-1.423c.335-1.257.335-3.877.335-3.877s0-2.62-.335-3.876z" fill="#323D4C"/>
        <path d="M6.379 10.546V5.787l4.182 2.38-4.182 2.379z" fill="#FEFEFE"/>
    </g>
    <defs>
        <clipPath id="lm4u9vhhwa">
            <path fill="#fff" transform="translate(0 .167)" d="M0 0h16v16H0z"/>
        </clipPath>
    </defs>
</svg>
