<svg width="160" height="21" viewBox="0 0 160 21" fill="none" xmlns="http://www.w3.org/2000/svg">
    <g clip-path="url(#ufj4rdeuga)">
        <path d="M44.333 8.034v8.699h5.433v2.141h-7.862V8.034h2.43zM58.774 14.977c0 2.367-1.735 4.083-4.15 4.083-2.416 0-4.151-1.716-4.151-4.083 0-2.368 1.735-4.083 4.15-4.083 2.416 0 4.151 1.715 4.151 4.083zm-6.006 0c0 1.197.734 2.061 1.855 2.061 1.122 0 1.856-.864 1.856-2.061s-.734-2.062-1.855-2.062c-1.122 0-1.856.865-1.856 2.062zM64.78 13.115h-1.547v5.759h-2.376v-5.76h-1.548V11.08h1.548V8.766h2.376v2.314h1.548v2.035zM70.908 13.115h-1.549v5.759h-2.375v-5.76h-1.548V11.08h1.548V8.766h2.376v2.314h1.548v2.035zM71.441 14.977c0-2.368 1.682-4.083 4.071-4.083 2.39 0 4.071 1.702 4.071 4.083 0 .226-.013.479-.053.758h-5.726c.187.904.814 1.423 1.708 1.423.68 0 1.241-.24 1.442-.612h2.389c-.4 1.49-1.936 2.514-3.83 2.514-2.39 0-4.072-1.702-4.072-4.083zm5.82-.772c-.2-.93-.814-1.436-1.749-1.436-.934 0-1.521.505-1.722 1.436h3.47zM80.984 11.08h2.376v.798c.467-.625 1.188-.984 2.189-.984.44 0 .72.026 1.028.133l.026 2.22c-.333-.172-.747-.265-1.214-.265-1.268 0-2.029.718-2.029 1.902v3.99h-2.376V11.08zM95.586 11.08l-4.498 11.04h-2.336l1.415-3.459-3.083-7.58h2.63l1.694 4.814 1.709-4.815h2.469zM110.011 12.097h-2.67c-.453-.798-1.481-1.41-2.802-1.41-1.976 0-3.444 1.45-3.444 3.471 0 2.022 1.468 3.512 3.444 3.512 1.695 0 2.869-1.038 3.123-2.102h-3.324V13.52h5.913v.638c0 3.286-2.469 5.693-5.766 5.693-3.296 0-5.819-2.407-5.819-5.693 0-3.285 2.469-5.692 5.819-5.692 2.843 0 4.898 1.596 5.526 3.63zM114.001 19.585h-2.376V8.413h2.376v11.172zM123.69 15.689c0 2.367-1.735 4.083-4.15 4.083-2.416 0-4.151-1.716-4.151-4.083 0-2.368 1.735-4.084 4.151-4.084 2.415 0 4.15 1.716 4.15 4.084zm-6.006 0c0 1.197.734 2.061 1.856 2.061 1.121 0 1.855-.864 1.855-2.061s-.734-2.062-1.855-2.062c-1.122 0-1.856.865-1.856 2.062zM127.456 18.787v.798h-2.376V8.413h2.376v4.176c.467-.625 1.214-.984 2.242-.984 2.242 0 3.804 1.716 3.804 4.083 0 2.368-1.562 4.084-3.804 4.084-1.028 0-1.775-.36-2.242-.985zm3.724-3.099c0-1.197-.721-2.061-1.856-2.061-1.134 0-1.908.864-1.908 2.061s.747 2.062 1.908 2.062c1.162 0 1.856-.865 1.856-2.062zM134.488 15.689c0-2.368 1.562-4.084 3.804-4.084 1.028 0 1.775.36 2.242.985v-.798h2.376v7.794h-2.376v-.798c-.467.625-1.214.984-2.242.984-2.242 0-3.804-1.716-3.804-4.083zm6.088 0c0-1.197-.748-2.062-1.909-2.062s-1.855.865-1.855 2.062c0 1.197.721 2.061 1.855 2.061 1.135 0 1.909-.864 1.909-2.061zM147.073 19.585h-2.376V8.413h2.376v11.172z" fill="#fff"/>
        <path d="M5.095 7.987v8.699h5.432v2.141H2.666V7.987h2.43zM11.234 14.93c0-2.368 1.562-4.083 3.804-4.083 1.028 0 1.775.359 2.242.984v-.798h2.376v7.794h-2.375v-.798c-.468.625-1.215.984-2.243.984-2.242 0-3.804-1.716-3.804-4.083zm6.086 0c0-1.197-.747-2.062-1.908-2.062s-1.855.865-1.855 2.062c0 1.197.72 2.061 1.855 2.061 1.134 0 1.908-.864 1.908-2.061zM29.347 14.93c0 2.367-1.736 4.083-4.151 4.083-2.416 0-4.151-1.716-4.151-4.083 0-2.368 1.735-4.083 4.15-4.083 2.416 0 4.152 1.715 4.152 4.083zm-6.006 0c0 1.197.734 2.061 1.855 2.061 1.12 0 1.855-.864 1.855-2.061s-.734-2.062-1.855-2.062-1.855.865-1.855 2.062zM37.58 13.374h-2.295c-.08-.48-.628-.772-1.322-.772-.694 0-1.24.253-1.24.599 0 .386.52.572 1.854.785 2.31.345 3.137 1.103 3.137 2.447 0 1.596-1.682 2.58-3.67 2.58-1.99 0-3.59-1.01-3.671-2.647h2.296c.08.506.667.838 1.415.838.747 0 1.32-.279 1.32-.638 0-.36-.533-.612-1.881-.811-1.869-.28-3.097-.852-3.097-2.434 0-1.583 1.589-2.474 3.577-2.474 1.989 0 3.484.984 3.577 2.527z" fill="#D51317"/>
        <path fill-rule="evenodd" clip-rule="evenodd" d="M153.646 1.292c-1.512.33.889 4.555-4.535 6.957 3.243-1.66 3.045-5.197 1.835-4.664-.854.376 1.082 2.585-1.835 4.664 2.396-4.183-.398-7.966-1.349-6.505-.674 1.036 3.081 2.09 1.349 6.505.062-6.017-5.291-8.45-5.439-6.278-.104 1.536 4.639.417 5.438 6.279 4.31 4.21 9.783 2.043 8.315.432-1.041-1.14-3.516 3.046-8.313-.435 3.305 1.532 5.983-.798 4.819-1.42-.821-.439-1.385 2.437-4.819 1.42-2.084-2.907-4.301-.98-4.681-1.825-.537-1.201 3.015-1.403 4.681 1.825 5.816-1.615 6.674-7.42 4.535-6.957l-.001.002zm1.709 5.165-.262.047-.166.207-.127-.233-.247-.094.183-.192.013-.266.241.113.254-.07-.034.263.147.222-.002.003zm-8.077-1.135-.26.049-.166.207-.126-.233-.248-.094.186-.19.012-.266.24.115.256-.068-.034.263.145.22-.005-.003zm4.421-2.874-.338.06-.212.264-.161-.298-.318-.12.235-.245.016-.338.307.146.328-.09-.045.334.186.285.002.002zm5.167 10.324-.554.103-.35.435-.271-.49-.524-.2.386-.405.03-.56.507.242.542-.146-.071.556.308.467-.003-.002z" fill="#fff"/>
    </g>
    <defs>
        <clipPath id="ufj4rdeuga">
            <path fill="#fff" transform="translate(0 .065)" d="M0 0h160v20.87H0z"/>
        </clipPath>
    </defs>
</svg>
